<?xml version="1.0" standalone="yes"?>
<svg xmlns="http://www.w3.org/2000/svg" width="146" height="146">
<path style="fill:#fdfdfd; stroke:none;" d="M0 0L0 146L146 146L146 0L0 0z"/>
<path style="fill:#a7bbb6; stroke:none;" d="M102 24L102 25L106 25L102 24M98 25L99 26L98 25z"/>
<path style="fill:#a9735a; stroke:none;" d="M99 25L100 26L99 25z"/>
<path style="fill:#6c574b; stroke:none;" d="M73 63L72 63C71.0238 51.0487 64.9878 40.5276 53 37L53 38C69.4315 46.5297 67.2115 62.6703 66 78L65 78C65.5898 64.264 67.3611 43.8869 49 40.3403C44.0258 39.3795 38.936 40.3762 34 41L34 42C41.965 48.6569 33.3477 57.6893 25 57L33 44L33 43C4.26495 49.5939 -8.60305 104.543 24 114L24 115L10 110C21.5412 123.427 40.8526 115.633 51.9961 106.384C70.0033 91.4393 74.7369 66.0011 84.8094 46C89.3359 37.0118 96.998 26.6879 108 27C102.771 23.0431 95.5068 26.3211 91.0147 30.2137C81.7182 38.2697 76.7171 51.5958 73 63z"/>
<path style="fill:#a9735a; stroke:none;" d="M107 25L108 26L107 25z"/>
<path style="fill:#a7bbb6; stroke:none;" d="M95 26L96 27L95 26z"/>
<path style="fill:#a9735a; stroke:none;" d="M96 26L97 27L96 26M105.667 26.3333L106.333 26.6667L105.667 26.3333M108 26L109 27L108 26z"/>
<path style="fill:#a7bbb6; stroke:none;" d="M109 26L110 27L109 26z"/>
<path style="fill:#a9735a; stroke:none;" d="M94 27L95 28L94 27M101 27L102 28L101 27z"/>
<path style="fill:#a7bbb6; stroke:none;" d="M102.667 27.3333L103.333 27.6667L102.667 27.3333z"/>
<path style="fill:#a9735a; stroke:none;" d="M99 28L100 29L99 28z"/>
<path style="fill:#a7bbb6; stroke:none;" d="M100 28L101 29L100 28M91 29L92 30L91 29M98 29L99 30L98 29M90 30L91 31L90 30z"/>
<path style="fill:#a9735a; stroke:none;" d="M96 30L97 31L96 30z"/>
<path style="fill:#a7bbb6; stroke:none;" d="M105 30L105 31L111 33L105 30M113 30L114 31L113 30M89 31L90 32L89 31M95 31L96 32L95 31M103 31L104 32L103 31z"/>
<path style="fill:#0fb2ac; stroke:none;" d="M97 40L118 54.9877L131 50L109 42C113.155 28.861 100.079 29.0627 97 40z"/>
<path style="fill:#a9735a; stroke:none;" d="M113 31L114 40L132 46L113 31z"/>
<path style="fill:#a7bbb6; stroke:none;" d="M88 32L89 33L88 32M94 32L95 33L94 32M116 32L117 33L116 32M87 33L88 34L87 33M93 33L94 34L93 33M100 33L101 34L100 33M117 33L118 34L117 33M92 34L93 35L92 34M99 34L100 35L99 34M46 35L46 36L51 36L46 35z"/>
<path style="fill:#a9735a; stroke:none;" d="M91 35L92 36L91 35z"/>
<path style="fill:#a7bbb6; stroke:none;" d="M98 35L99 36L98 35z"/>
<path style="fill:#a9735a; stroke:none;" d="M50 36L51 37L50 36z"/>
<path style="fill:#6c574b; stroke:none;" d="M51 36L52 37L51 36z"/>
<path style="fill:#a9735a; stroke:none;" d="M52.3333 36.6667L52.6667 37.3333L52.3333 36.6667z"/>
<path style="fill:#a7bbb6; stroke:none;" d="M53 36L54 37L53 36z"/>
<path style="fill:#a9735a; stroke:none;" d="M85 36L86 37L85 36M90 36L91 37L90 36z"/>
<path style="fill:#a7bbb6; stroke:none;" d="M97 36L98 37L97 36M121 36L122 37L121 36z"/>
<path style="fill:#a9735a; stroke:none;" d="M55 37L56 38L55 37z"/>
<path style="fill:#a7bbb6; stroke:none;" d="M56 37L57 38L56 37M84 37L85 38L84 37M110.333 37.6667L110.667 38.3333L110.333 37.6667M122 37L123 38L122 37M54 38L55 39L54 38z"/>
<path style="fill:#a9735a; stroke:none;" d="M57 38L58 39L57 38z"/>
<path style="fill:#a7bbb6; stroke:none;" d="M89 38L90 39L89 38M96 38L97 39L96 38M113 38L114 39L113 38M40 39L40 40L44 40L40 39z"/>
<path style="fill:#a9735a; stroke:none;" d="M44 39L45 40L44 39z"/>
<path style="fill:#a7bbb6; stroke:none;" d="M45 39L45 40L48 40L45 39M55 39L56 40L55 39z"/>
<path style="fill:#a9735a; stroke:none;" d="M56 39L57 40L56 39z"/>
<path style="fill:#a7bbb6; stroke:none;" d="M59 39L60 40L59 39z"/>
<path style="fill:#a9735a; stroke:none;" d="M83 39L84 40L83 39M88 39L89 40L88 39z"/>
<path style="fill:#a7bbb6; stroke:none;" d="M36 40L37 41L36 40z"/>
<path style="fill:#a9735a; stroke:none;" d="M37 40L38 41L37 40M50 40L51 41L50 40z"/>
<path style="fill:#a7bbb6; stroke:none;" d="M51 40L52 41L51 40z"/>
<path style="fill:#a9735a; stroke:none;" d="M57 40L58 41L57 40M60 40L61 41L60 40z"/>
<path style="fill:#a7bbb6; stroke:none;" d="M82 40L83 41L82 40M98 40L99 41L98 40M116 40L117 41L116 40M33 41L34 42L33 41M53 41L54 42L53 41M58 41L59 42L58 41M62 41L63 42L62 41z"/>
<path style="fill:#a9735a; stroke:none;" d="M82 41L83 42L82 41z"/>
<path style="fill:#a7bbb6; stroke:none;" d="M87 41L88 42L87 41M99 41L100 42L99 41M109.667 41.3333L110.333 41.6667L109.667 41.3333M118 41L119 42L118 41M127 41L128 42L127 41M31 42L32 43L31 42z"/>
<path style="fill:#a9735a; stroke:none;" d="M32 42L32 43L36 43L32 42M54 42L55 43L54 42z"/>
<path style="fill:#a7bbb6; stroke:none;" d="M55 42L56 43L55 42M59 42L60 43L59 42M63 42L64 43L63 42M81 42L82 43L81 42z"/>
<path style="fill:#a9735a; stroke:none;" d="M86 42L87 43L86 42z"/>
<path style="fill:#0fb2ac; stroke:none;" d="M93 42L85 59L105 74L114 58L93 42z"/>
<path style="fill:#a7bbb6; stroke:none;" d="M94 42L95 43L94 42M100 42L101 43L100 42M112.667 42.3333L113.333 42.6667L112.667 42.3333M121 42L122 43L121 42M128 42L129 43L128 42M29 43L30 44L29 43M33 43L32 45L34 45L33 43z"/>
<path style="fill:#fdfdfd; stroke:none;" d="M34 43C29.3094 47.6407 27.0621 50.1353 27 57C34.3561 56.1785 39.0912 50.1083 36 43L34 43z"/>
<path style="fill:#a7bbb6; stroke:none;" d="M36 43L37 44L36 43M56 43L57 44L56 43M60 43L61 44L60 43M64 43L65 44L64 43M86 43L87 44L86 43M92 43L93 44L92 43M101 43L102 44L101 43M115.667 43.3333L116.333 43.6667L115.667 43.3333M27 44L28 45L27 44z"/>
<path style="fill:#a9735a; stroke:none;" d="M28 44L29 45L28 44z"/>
<path style="fill:#a7bbb6; stroke:none;" d="M37.3333 44.6667L37.6667 45.3333L37.3333 44.6667z"/>
<path style="fill:#a9735a; stroke:none;" d="M57 44L58 45L57 44M61 44L62 45L61 44z"/>
<path style="fill:#a7bbb6; stroke:none;" d="M65 44L66 45L65 44M80 44L81 45L80 44z"/>
<path style="fill:#a9735a; stroke:none;" d="M85 44L86 45L85 44z"/>
<path style="fill:#a7bbb6; stroke:none;" d="M91.3333 44.6667L91.6667 45.3333L91.3333 44.6667M118 44L119 45L118 44M126 44L127 45L126 44z"/>
<path style="fill:#a9735a; stroke:none;" d="M26 45L27 46L26 45M30 45L31 46L30 45M58 45L59 46L58 45z"/>
<path style="fill:#a7bbb6; stroke:none;" d="M66 45L67 46L66 45M85 45L86 46L85 45M98 45L99 46L98 45M120.667 45.3333L121.333 45.6667L120.667 45.3333M129 45L130 46L129 45M132 45L132 47L134 47L132 45M24 46L25 47L24 46M29 46L30 47L29 46z"/>
<path style="fill:#a9735a; stroke:none;" d="M59 46L60 47L59 46z"/>
<path style="fill:#a7bbb6; stroke:none;" d="M62 46L63 47L62 46M79 46L80 47L79 46z"/>
<path style="fill:#a9735a; stroke:none;" d="M84 46L85 47L84 46z"/>
<path style="fill:#a7bbb6; stroke:none;" d="M90 46L91 47L90 46M99 46L100 47L99 46M105 46L106 47L105 46M124 46L125 47L124 46M23 47L24 48L23 47z"/>
<path style="fill:#a9735a; stroke:none;" d="M28 47L29 48L28 47M60 47L61 48L60 47M63 47L64 48L63 47M67 47L68 48L67 47z"/>
<path style="fill:#a7bbb6; stroke:none;" d="M84 47L85 48L84 47M100 47L101 48L100 47M106 47L107 48L106 47M126 47L127 48L126 47M22 48L23 49L22 48M37 48L38 49L37 48z"/>
<path style="fill:#a9735a; stroke:none;" d="M52 49L52 50L56 49L52 49z"/>
<path style="fill:#a7bbb6; stroke:none;" d="M61 48L62 49L61 48M68 48L69 49L68 48M78 48L79 49L78 48z"/>
<path style="fill:#a9735a; stroke:none;" d="M83 48L84 49L83 48z"/>
<path style="fill:#a7bbb6; stroke:none;" d="M89 48L90 49L89 48M129 48L130 49L129 48z"/>
<path style="fill:#a9735a; stroke:none;" d="M21 49L22 50L21 49z"/>
<path style="fill:#a7bbb6; stroke:none;" d="M27 49L28 50L27 49z"/>
<path style="fill:#a9735a; stroke:none;" d="M37 49L38 50L37 49z"/>
<path style="fill:#a7bbb6; stroke:none;" d="M53 50L53 51L61 54C61.102 49.4 56.6141 49.0483 53 50z"/>
<path style="fill:#a9735a; stroke:none;" d="M64 49L65 50L64 49M68 49L69 50L68 49z"/>
<path style="fill:#a7bbb6; stroke:none;" d="M83 49L84 50L83 49M130 51L133 49L130 51z"/>
<path style="fill:#a9735a; stroke:none;" d="M20 50L21 51L20 50M26 50L27 51L26 50z"/>
<path style="fill:#fdfdfd; stroke:none;" d="M47 66L44 65C51.3731 71.9017 67.0813 60.3061 60.2539 52.3573C53.4791 44.4698 42.918 58.3096 47 66z"/>
<path style="fill:#a9735a; stroke:none;" d="M62 50L63 51L62 50z"/>
<path style="fill:#a7bbb6; stroke:none;" d="M64 50L63 52L64 50M69 50L70 51L69 50M77 50L78 51L77 50M88 50L89 51L88 50M104 50L105 51L104 50M110 50L111 51L110 50z"/>
<path style="fill:#a9735a; stroke:none;" d="M19 51L20 52L19 51z"/>
<path style="fill:#a7bbb6; stroke:none;" d="M26 51L26 55L27 55L26 51z"/>
<path style="fill:#a9735a; stroke:none;" d="M36 51L37 52L36 51M50 51L51 52L50 51z"/>
<path style="fill:#a7bbb6; stroke:none;" d="M51 51L52 52L51 51z"/>
<path style="fill:#fdfdfd; stroke:none;" d="M64 51L65 57L66 57L64 51z"/>
<path style="fill:#a9735a; stroke:none;" d="M65 51L66 52L65 51M69 51L70 52L69 51M77 51L78 52L77 51z"/>
<path style="fill:#a7bbb6; stroke:none;" d="M82 51L83 52L82 51M105 51L106 52L105 51M111 51L112 52L111 51M127 51L128 52L127 51z"/>
<path style="fill:#a9735a; stroke:none;" d="M18 52L19 53L18 52z"/>
<path style="fill:#a7bbb6; stroke:none;" d="M35 52L36 53L35 52M49 52L50 53L49 52z"/>
<path style="fill:#a9735a; stroke:none;" d="M63 52L64 53L63 52z"/>
<path style="fill:#a7bbb6; stroke:none;" d="M65 52L66 53L65 52M76 52L77 53L76 52M87.3333 52.6667L87.6667 53.3333L87.3333 52.6667M106 52L107 53L106 52M112 52L113 53L112 52M124 52L125 53L124 52M17 53L18 54L17 53M48 53L49 54L48 53M70 53L71 54L70 53z"/>
<path style="fill:#a9735a; stroke:none;" d="M76 53L77 54L76 53z"/>
<path style="fill:#a7bbb6; stroke:none;" d="M81.3333 53.6667L81.6667 54.3333L81.3333 53.6667M113 53L114 54L113 53M122 53L123 54L122 53M130 53L130 54L133 54L130 53z"/>
<path style="fill:#a9735a; stroke:none;" d="M133 53L133 54L137 55L137 54L133 53z"/>
<path style="fill:#6c574b; stroke:none;" d="M135 53L135 54L138 54L135 53z"/>
<path style="fill:#a9735a; stroke:none;" d="M138.667 53.3333L139.333 53.6667L138.667 53.3333z"/>
<path style="fill:#a7bbb6; stroke:none;" d="M137 54L137 55L144 55L137 54M16 54L17 55L16 54z"/>
<path style="fill:#a9735a; stroke:none;" d="M34 54L35 55L34 54z"/>
<path style="fill:#a7bbb6; stroke:none;" d="M47 54L48 55L47 54M64 54L65 55L64 54z"/>
<path style="fill:#a9735a; stroke:none;" d="M66.3333 54.6667L66.6667 55.3333L66.3333 54.6667M70 54L71 55L70 54z"/>
<path style="fill:#a7bbb6; stroke:none;" d="M86 54L87 55L86 54M109 54L110 55L109 54M115 54L116 55L115 54M120 54L121 55L120 54M127 54L128 55L127 54z"/>
<path style="fill:#a9735a; stroke:none;" d="M128 54L129 55L128 54z"/>
<path style="fill:#6c574b; stroke:none;" d="M60 129L60 130C105.199 129.626 97.5914 65.8015 135 55C124.372 50.6671 114.361 64.2015 109.872 72C97.1489 94.1009 88.4748 123.459 60 129z"/>
<path style="fill:#a7bbb6; stroke:none;" d="M15 55L16 56L15 55z"/>
<path style="fill:#a9735a; stroke:none;" d="M26 55L25 57L26 55M33 55L34 56L33 55M46 55L47 56L46 55M64 55L65 56L64 55z"/>
<path style="fill:#a7bbb6; stroke:none;" d="M75 55L76 56L75 55z"/>
<path style="fill:#a9735a; stroke:none;" d="M80 55L81 56L80 55z"/>
<path style="fill:#a7bbb6; stroke:none;" d="M110 55L111 56L110 55M116 55L117 56L116 55M119 55L120 56L119 55M125 55L126 56L125 55z"/>
<path style="fill:#a9735a; stroke:none;" d="M132 55L133 56L132 55z"/>
<path style="fill:#a7bbb6; stroke:none;" d="M133 55L134 56L133 55M26 56L27 57L26 56M31 56L32 57L31 56M66 56L65 58L67 58L66 56M71 56L72 57L71 56M80 56L81 57L80 56M111 56L112 57L111 56M117.667 56.3333L118.333 56.6667L117.667 56.3333M123 56L124 57L123 56M130 56L131 57L130 56z"/>
<path style="fill:#a9735a; stroke:none;" d="M14 57L15 58L14 57z"/>
<path style="fill:#a7bbb6; stroke:none;" d="M27.6667 57.3333L28.3333 57.6667L27.6667 57.3333z"/>
<path style="fill:#a9735a; stroke:none;" d="M29 57L30 58L29 57z"/>
<path style="fill:#a7bbb6; stroke:none;" d="M45 57L46 58L45 57z"/>
<path style="fill:#a9735a; stroke:none;" d="M71.3333 57.6667L71.6667 58.3333L71.3333 57.6667z"/>
<path style="fill:#a7bbb6; stroke:none;" d="M74 57L75 58L74 57M85 57L86 58L85 57M112 57L113 58L112 57M121 57L122 58L121 57M128 57L129 58L128 57M13 58L14 59L13 58M61 58L62 59L61 58z"/>
<path style="fill:#a9735a; stroke:none;" d="M65.3333 58.6667L65.6667 59.3333L65.3333 58.6667z"/>
<path style="fill:#fdfdfd; stroke:none;" d="M66 58L66 62L67 62L66 58z"/>
<path style="fill:#a9735a; stroke:none;" d="M74 58L75 59L74 58z"/>
<path style="fill:#a7bbb6; stroke:none;" d="M79 58L80 59L79 58M120 58L121 59L120 58z"/>
<path style="fill:#a9735a; stroke:none;" d="M126 58L127 59L126 58M61 59L62 60L61 59z"/>
<path style="fill:#a7bbb6; stroke:none;" d="M114 59L115 60L114 59z"/>
<path style="fill:#a9735a; stroke:none;" d="M119 59L120 60L119 59z"/>
<path style="fill:#a7bbb6; stroke:none;" d="M125 59L126 60L125 59z"/>
<path style="fill:#a9735a; stroke:none;" d="M12 60L13 61L12 60M44 60L42 61C43.3571 63.4164 45.2392 62.3721 44 60z"/>
<path style="fill:#a7bbb6; stroke:none;" d="M73 60L72 62L73 60z"/>
<path style="fill:#a9735a; stroke:none;" d="M78 60L79 61L78 60z"/>
<path style="fill:#a7bbb6; stroke:none;" d="M87 60L88 61L87 60z"/>
<path style="fill:#a9735a; stroke:none;" d="M118 60L119 61L118 60z"/>
<path style="fill:#a7bbb6; stroke:none;" d="M124 60L125 61L124 60M11 61L12 62L11 61z"/>
<path style="fill:#a9735a; stroke:none;" d="M60 61L61 62L60 61M67 61L67 68L68 68L67 61M73 61L74 62L73 61z"/>
<path style="fill:#a7bbb6; stroke:none;" d="M78 61L79 62L78 61M88 61L89 62L88 61M113 61L114 62L113 61z"/>
<path style="fill:#a9735a; stroke:none;" d="M117 61L118 62L117 61M122 61L123 62L122 61M13 64L16 63L13 64z"/>
<path style="fill:#a7bbb6; stroke:none;" d="M59 62L60 63L59 62M66 62L66 72L67 72L66 62z"/>
<path style="fill:#a9735a; stroke:none;" d="M72 62L73 63L72 62z"/>
<path style="fill:#a7bbb6; stroke:none;" d="M89 62L90 63L89 62M112 62L113 63L112 62z"/>
<path style="fill:#a9735a; stroke:none;" d="M116 62L117 63L116 62M121 62L122 63L121 62z"/>
<path style="fill:#a7bbb6; stroke:none;" d="M10 63L11 64L10 63M14 63L14 65L16 65L14 63z"/>
<path style="fill:#fdfdfd; stroke:none;" d="M15 63L10 76C15.9209 75.0644 21.3051 67.0914 15 63z"/>
<path style="fill:#a9735a; stroke:none;" d="M17 63L18 64L17 63z"/>
<path style="fill:#a7bbb6; stroke:none;" d="M43.3333 63.6667L43.6667 64.3333L43.3333 63.6667z"/>
<path style="fill:#6c574b; stroke:none;" d="M44 63L45 64L44 63z"/>
<path style="fill:#a7bbb6; stroke:none;" d="M58 63L59 64L58 63M77.3333 63.6667L77.6667 64.3333L77.3333 63.6667M82 63L83 64L82 63z"/>
<path style="fill:#0fb2ac; stroke:none;" d="M83 63L74 83L94 96C96.0361 91.1094 101.482 84.3853 101.292 79.0147C101.068 72.7118 87.8987 65.7911 83 63z"/>
<path style="fill:#a7bbb6; stroke:none;" d="M84 63L85 64L84 63M90 63L91 64L90 63M111 63L112 64L111 63M115 63L116 64L115 63z"/>
<path style="fill:#a9735a; stroke:none;" d="M120 63L121 64L120 63M44.6667 64.3333L45.3333 64.6667L44.6667 64.3333z"/>
<path style="fill:#a7bbb6; stroke:none;" d="M57 64L58 65L57 64M85 64L86 65L85 64M114 64L115 65L114 64z"/>
<path style="fill:#a9735a; stroke:none;" d="M119 64L120 65L119 64z"/>
<path style="fill:#a7bbb6; stroke:none;" d="M9 65L10 66L9 65z"/>
<path style="fill:#a9735a; stroke:none;" d="M18 65L19 66L18 65z"/>
<path style="fill:#a7bbb6; stroke:none;" d="M45.6667 65.3333L46.3333 65.6667L45.6667 65.3333M56 65L57 66L56 65z"/>
<path style="fill:#a9735a; stroke:none;" d="M76 65L77 66L76 65z"/>
<path style="fill:#a7bbb6; stroke:none;" d="M81.3333 65.6667L81.6667 66.3333L81.3333 65.6667M93 65L94 66L93 65z"/>
<path style="fill:#a9735a; stroke:none;" d="M118 65L119 66L118 65z"/>
<path style="fill:#a7bbb6; stroke:none;" d="M18.3333 66.6667L18.6667 67.3333L18.3333 66.6667z"/>
<path style="fill:#a9735a; stroke:none;" d="M44 66L45 67L44 66z"/>
<path style="fill:#a7bbb6; stroke:none;" d="M54 66L55 67L54 66z"/>
<path style="fill:#a9735a; stroke:none;" d="M55 66L56 67L55 66z"/>
<path style="fill:#a7bbb6; stroke:none;" d="M76 66L77 67L76 66M88 66L89 67L88 66M94 66L95 67L94 66M109 66L110 67L109 66z"/>
<path style="fill:#a9735a; stroke:none;" d="M113 66L114 67L113 66z"/>
<path style="fill:#a7bbb6; stroke:none;" d="M8 67L9 68L8 67M11 67L12 68L11 67M46 67L47 68L46 67M52 67L53 68L52 67z"/>
<path style="fill:#a9735a; stroke:none;" d="M53 67L54 68L53 67z"/>
<path style="fill:#a7bbb6; stroke:none;" d="M89 67L90 68L89 67M95 67L96 68L95 67M108 67L109 68L108 67M112 67L113 68L112 67M117 67L118 68L117 67z"/>
<path style="fill:#a9735a; stroke:none;" d="M8 68L9 69L8 68M10 68L11 69L10 68M18 68L19 69L18 68M29 68L30 69L29 68M48.6667 68.3333L49.3333 68.6667L48.6667 68.3333z"/>
<path style="fill:#a7bbb6; stroke:none;" d="M75 68L76 69L75 68M80 68L81 69L80 68M116 68L117 69L116 68M7 69L8 70L7 69M10 69L11 70L10 69M27 69L26 71L27 69z"/>
<path style="fill:#fdfdfd; stroke:none;" d="M31 69C20.6981 71.9889 30.6021 81.2198 31 69z"/>
<path style="fill:#a7bbb6; stroke:none;" d="M92 69L93 70L92 69M98 69L99 70L98 69M107 69L108 70L107 69z"/>
<path style="fill:#a9735a; stroke:none;" d="M111 69L112 70L111 69M115 69L116 70L115 69M7 70L8 71L7 70M9.33333 70.6667L9.66667 71.3333L9.33333 70.6667z"/>
<path style="fill:#a7bbb6; stroke:none;" d="M17 70L18 71L17 70M31 70L31 74L32 74L31 70z"/>
<path style="fill:#a9735a; stroke:none;" d="M74 70L75 71L74 70z"/>
<path style="fill:#a7bbb6; stroke:none;" d="M79.3333 70.6667L79.6667 71.3333L79.3333 70.6667M93 70L94 71L93 70M99 70L100 71L99 70M110 70L111 71L110 70M115 70L116 71L115 70z"/>
<path style="fill:#a9735a; stroke:none;" d="M17 71L18 72L17 71M25 71L26 72L25 71z"/>
<path style="fill:#a7bbb6; stroke:none;" d="M74 71L75 72L74 71M100 71L101 72L100 71M106 71L107 72L106 71M114 71L115 72L114 71M6 72L7 73L6 72M9.33333 72.6667L9.66667 73.3333L9.33333 72.6667M16 72L17 73L16 72z"/>
<path style="fill:#a9735a; stroke:none;" d="M65 72L65 78L66 78L67 72L65 72M73 72L74 73L73 72z"/>
<path style="fill:#a7bbb6; stroke:none;" d="M96 72L97 73L96 72z"/>
<path style="fill:#a9735a; stroke:none;" d="M109 72L110 73L109 72M6 73L7 74L6 73z"/>
<path style="fill:#a7bbb6; stroke:none;" d="M73 73L74 74L73 73M78 73L79 74L78 73M97 73L98 74L97 73M103 73L104 74L103 73M105 73L106 74L105 73M113 73L114 74L113 73z"/>
<path style="fill:#a9735a; stroke:none;" d="M9 74L9 77L10 77L9 74M15 74L16 75L15 74M24 74L25 75L24 74z"/>
<path style="fill:#a7bbb6; stroke:none;" d="M99 74L100 75L99 74M104 74L105 75L104 74z"/>
<path style="fill:#a9735a; stroke:none;" d="M108 74L109 75L108 74M112 74L113 75L112 74M14 75L15 76L14 75M30 75L31 76L30 75z"/>
<path style="fill:#a7bbb6; stroke:none;" d="M72 75L73 76L72 75M77 75L78 76L77 75M100 75L101 76L100 75M107 75L108 76L107 75M5 76L6 77L5 76M10 76L10 77L13 77L10 76z"/>
<path style="fill:#a9735a; stroke:none;" d="M25 76L26 77L25 76M29 76L30 77L29 76z"/>
<path style="fill:#a7bbb6; stroke:none;" d="M101 76L102 77L101 76z"/>
<path style="fill:#a9735a; stroke:none;" d="M107 76L108 77L107 76z"/>
<path style="fill:#a7bbb6; stroke:none;" d="M111 76L112 77L111 76z"/>
<path style="fill:#a9735a; stroke:none;" d="M5.33333 77.6667L5.66667 78.3333L5.33333 77.6667M26.6667 77.3333L27.3333 77.6667L26.6667 77.3333M71 77L72 78L71 77z"/>
<path style="fill:#a7bbb6; stroke:none;" d="M76 77L77 78L76 77M102.333 77.6667L102.667 78.3333L102.333 77.6667M106 77L107 78L106 77M71 78L72 79L71 78z"/>
<path style="fill:#a9735a; stroke:none;" d="M106 78L107 79L106 78z"/>
<path style="fill:#a7bbb6; stroke:none;" d="M110 78L111 79L110 78z"/>
<path style="fill:#a9735a; stroke:none;" d="M70 79L71 80L70 79z"/>
<path style="fill:#a7bbb6; stroke:none;" d="M75 79L76 80L75 79M105 79L106 80L105 79M4 80L4 84L5 84L4 80M70 80L71 81L70 80M101 80L102 81L101 80M109 80L110 81L109 80z"/>
<path style="fill:#a9735a; stroke:none;" d="M69 81L70 82L69 81z"/>
<path style="fill:#a7bbb6; stroke:none;" d="M74 81L75 82L74 81M104 81L105 82L104 81z"/>
<path style="fill:#a9735a; stroke:none;" d="M108 81L109 82L108 81M38 83L38 84L42 84L38 83z"/>
<path style="fill:#a7bbb6; stroke:none;" d="M40 82L40 83L44 84L40 82z"/>
<path style="fill:#a9735a; stroke:none;" d="M44 82L45 83L44 82z"/>
<path style="fill:#a7bbb6; stroke:none;" d="M69 82L70 83L69 82M100 82L101 83L100 82M108 82L109 83L108 82z"/>
<path style="fill:#fdfdfd; stroke:none;" d="M37 103L34 101C42.8171 110.533 54.1908 96.7351 48.821 87.0625C45.6445 81.3406 38.0121 84.3226 35.4568 89.0548C32.8332 93.9134 34.7411 98.506 37 103z"/>
<path style="fill:#a9735a; stroke:none;" d="M46 83L47 84L46 83M68 83L69 84L68 83z"/>
<path style="fill:#a7bbb6; stroke:none;" d="M74 83L75 84L74 83M103 83L104 84L103 83z"/>
<path style="fill:#a9735a; stroke:none;" d="M107 83L108 84L107 83M4 84L4 91L5 91L4 84z"/>
<path style="fill:#a7bbb6; stroke:none;" d="M39.6667 84.3333L40.3333 84.6667L39.6667 84.3333M47 84L48 85L47 84M68 84L69 85L68 84M76 84L77 85L76 84M99 84L100 85L99 84M107 84L108 85L107 84z"/>
<path style="fill:#a9735a; stroke:none;" d="M14 87L17 85L14 87M37 85L38 86L37 85z"/>
<path style="fill:#a7bbb6; stroke:none;" d="M48 85L49 86L48 85z"/>
<path style="fill:#a9735a; stroke:none;" d="M67 85L68 86L67 85z"/>
<path style="fill:#a7bbb6; stroke:none;" d="M77 85L78 86L77 85M102 85L103 86L102 85z"/>
<path style="fill:#a9735a; stroke:none;" d="M106 85L107 86L106 85z"/>
<path style="fill:#a7bbb6; stroke:none;" d="M16 86L15 88L17 88L16 86z"/>
<path style="fill:#fdfdfd; stroke:none;" d="M17 86C11.8013 91.4819 9.80394 96.4323 12 104C19.9226 101.282 23.8529 92.0483 17 86z"/>
<path style="fill:#a7bbb6; stroke:none;" d="M18 86L19 87L18 86z"/>
<path style="fill:#a9735a; stroke:none;" d="M36 86L37 87L36 86M49 86L50 87L49 86z"/>
<path style="fill:#a7bbb6; stroke:none;" d="M71 87L71 88L74 88L71 87M98 86L99 87L98 86M106 86L107 87L106 86M19 87L20 88L19 87M49 87L50 88L49 87M66 87L67 88L66 87z"/>
<path style="fill:#0fb2ac; stroke:none;" d="M72 87L60 105C64.237 108.044 71.548 116.087 76.9853 115.923C81.8015 115.777 91.7663 104.029 89.1721 99.3248C86.4052 94.3075 77.0473 89.3983 72 87z"/>
<path style="fill:#a7bbb6; stroke:none;" d="M80 87L81 88L80 87M101 87L102 88L101 87z"/>
<path style="fill:#a9735a; stroke:none;" d="M105 87L106 88L105 87M20 88L21 89L20 88z"/>
<path style="fill:#a7bbb6; stroke:none;" d="M35 88L36 89L35 88z"/>
<path style="fill:#a9735a; stroke:none;" d="M50 88L51 89L50 88z"/>
<path style="fill:#a7bbb6; stroke:none;" d="M81 88L82 89L81 88M97 88L98 89L97 88z"/>
<path style="fill:#a9735a; stroke:none;" d="M101 88L102 89L101 88z"/>
<path style="fill:#a7bbb6; stroke:none;" d="M105 88L106 89L105 88M20 89L21 90L20 89z"/>
<path style="fill:#a9735a; stroke:none;" d="M34 89L35 90L34 89z"/>
<path style="fill:#a7bbb6; stroke:none;" d="M50 89L50 96L51 96L50 89M65 89L66 90L65 89M70 89L71 90L70 89M76 89L77 90L76 89M83 89L84 90L83 89M100 89L101 90L100 89z"/>
<path style="fill:#a9735a; stroke:none;" d="M104 89L105 90L104 89z"/>
<path style="fill:#a7bbb6; stroke:none;" d="M12 90L13 91L12 90M34 90L35 91L34 90z"/>
<path style="fill:#a9735a; stroke:none;" d="M64 90L65 91L64 90z"/>
<path style="fill:#a7bbb6; stroke:none;" d="M69 90L70 91L69 90M84 90L85 91L84 90M96 90L97 91L96 90z"/>
<path style="fill:#a9735a; stroke:none;" d="M100 90L101 91L100 90z"/>
<path style="fill:#a7bbb6; stroke:none;" d="M104 90L105 91L104 90M4 91L4 94L5 94L4 91z"/>
<path style="fill:#a9735a; stroke:none;" d="M11 91L12 92L11 91z"/>
<path style="fill:#a7bbb6; stroke:none;" d="M64 91L65 92L64 91M79 91L80 92L79 91M99 91L100 92L99 91z"/>
<path style="fill:#a9735a; stroke:none;" d="M103 91L104 92L103 91z"/>
<path style="fill:#a7bbb6; stroke:none;" d="M11 92L12 93L11 92z"/>
<path style="fill:#a9735a; stroke:none;" d="M33.3333 92.6667L33.6667 93.3333L33.3333 92.6667z"/>
<path style="fill:#a7bbb6; stroke:none;" d="M63 92L64 93L63 92M68 92L69 93L68 92M80 92L81 93L80 92M87 92L88 93L87 92M95 92L96 93L95 92z"/>
<path style="fill:#a9735a; stroke:none;" d="M99 92L100 93L99 92z"/>
<path style="fill:#a7bbb6; stroke:none;" d="M103 92L104 93L103 92M67 93L68 94L67 93M88 93L89 94L88 93M98 93L99 94L98 93z"/>
<path style="fill:#a9735a; stroke:none;" d="M102 93L103 94L102 93z"/>
<path style="fill:#a7bbb6; stroke:none;" d="M10 94L10 99L11 99L10 94M33.3333 94.6667L33.6667 95.3333L33.3333 94.6667M62 94L63 95L62 94M83 94L84 95L83 94M90 94L91 95L90 94M94 94L95 95L94 94z"/>
<path style="fill:#a9735a; stroke:none;" d="M98 94L99 95L98 94z"/>
<path style="fill:#a7bbb6; stroke:none;" d="M102 94L103 95L102 94z"/>
<path style="fill:#a9735a; stroke:none;" d="M5 95L6 96L5 95z"/>
<path style="fill:#a7bbb6; stroke:none;" d="M20.3333 95.6667L20.6667 96.3333L20.3333 95.6667z"/>
<path style="fill:#a9735a; stroke:none;" d="M61 95L62 96L61 95z"/>
<path style="fill:#a7bbb6; stroke:none;" d="M66 95L67 96L66 95M84 95L85 96L84 95M91 95L92 96L91 95M97 95L98 96L97 95z"/>
<path style="fill:#a9735a; stroke:none;" d="M101 95L102 96L101 95z"/>
<path style="fill:#a7bbb6; stroke:none;" d="M5.33333 96.6667L5.66667 97.3333L5.33333 96.6667z"/>
<path style="fill:#a9735a; stroke:none;" d="M33 96L34 97L33 96M50 96L51 97L50 96z"/>
<path style="fill:#a7bbb6; stroke:none;" d="M86 96L87 97L86 96M92.6667 96.3333L93.3333 96.6667L92.6667 96.3333z"/>
<path style="fill:#a9735a; stroke:none;" d="M97 96L98 97L97 96z"/>
<path style="fill:#a7bbb6; stroke:none;" d="M101 96L102 97L101 96M60 97L61 98L60 97M87 97L88 98L87 97M96 97L97 98L96 97M19 98L20 99L19 98z"/>
<path style="fill:#a9735a; stroke:none;" d="M32 98L35 100L35 99L32 98z"/>
<path style="fill:#a7bbb6; stroke:none;" d="M34 98L35 99L34 98M49 98L50 99L49 98M59 98L60 99L59 98M100 98L101 99L100 98z"/>
<path style="fill:#a9735a; stroke:none;" d="M6 99L7 100L6 99M10 99L9 102L10 102L11 102L10 99M19 99L20 100L19 99M58 99L59 100L58 99z"/>
<path style="fill:#a7bbb6; stroke:none;" d="M63 99L64 100L63 99M90 99L91 100L90 99M95 99L96 100L95 99z"/>
<path style="fill:#a9735a; stroke:none;" d="M99 99L100 100L99 99z"/>
<path style="fill:#a7bbb6; stroke:none;" d="M6 100L7 101L6 100z"/>
<path style="fill:#6c574b; stroke:none;" d="M10 100L11 101L10 100z"/>
<path style="fill:#a7bbb6; stroke:none;" d="M18 100L19 101L18 100M33 100L34 101L33 100z"/>
<path style="fill:#6c574b; stroke:none;" d="M34 100L35 101L34 100z"/>
<path style="fill:#a7bbb6; stroke:none;" d="M35 100L36 103L37 103L35 100z"/>
<path style="fill:#a9735a; stroke:none;" d="M48 100L49 101L48 100z"/>
<path style="fill:#a7bbb6; stroke:none;" d="M62 100L63 101L62 100M99 100L100 101L99 100z"/>
<path style="fill:#a9735a; stroke:none;" d="M7 101L8 102L7 101z"/>
<path style="fill:#a7bbb6; stroke:none;" d="M11 101L12 102L11 101M17 101L18 102L17 101z"/>
<path style="fill:#a9735a; stroke:none;" d="M33 101L34 102L33 101M35 101L36 102L35 101M47 101L48 102L47 101z"/>
<path style="fill:#a7bbb6; stroke:none;" d="M90 101L91 102L90 101M94 101L95 102L94 101z"/>
<path style="fill:#a9735a; stroke:none;" d="M98 101L99 102L98 101z"/>
<path style="fill:#a7bbb6; stroke:none;" d="M7 102L8 103L7 102M10 102L11 103L10 102M16 102L17 103L16 102z"/>
<path style="fill:#a9735a; stroke:none;" d="M34 102L35 103L34 102M46 102L47 103L46 102z"/>
<path style="fill:#a7bbb6; stroke:none;" d="M56 102L57 103L56 102M98 102L99 103L98 102z"/>
<path style="fill:#a9735a; stroke:none;" d="M8 103L9 104L8 103z"/>
<path style="fill:#a7bbb6; stroke:none;" d="M11 103L12 104L11 103M14 103L15 104L14 103z"/>
<path style="fill:#a9735a; stroke:none;" d="M15 103L16 104L15 103M35 103L36 104L35 103z"/>
<path style="fill:#a7bbb6; stroke:none;" d="M44 103L45 104L44 103z"/>
<path style="fill:#a9735a; stroke:none;" d="M45 103L46 104L45 103z"/>
<path style="fill:#a7bbb6; stroke:none;" d="M55 103L56 104L55 103M60 103L61 104L60 103M89 103L90 104L89 103z"/>
<path style="fill:#a9735a; stroke:none;" d="M93 103L94 104L93 103M97 103L98 104L97 103z"/>
<path style="fill:#a7bbb6; stroke:none;" d="M37.6667 104.333L38.3333 104.667L37.6667 104.333M42 104L43 105L42 104z"/>
<path style="fill:#a9735a; stroke:none;" d="M43 104L44 105L43 104z"/>
<path style="fill:#a7bbb6; stroke:none;" d="M59 104L60 105L59 104M88 104L89 105L88 104M92 104L93 105L92 104M9 105L10 106L9 105z"/>
<path style="fill:#a9735a; stroke:none;" d="M96 105L97 106L96 105M10 106L11 107L10 106M51 106L52 107L51 106z"/>
<path style="fill:#a7bbb6; stroke:none;" d="M62 106L63 107L62 106M87 106L88 107L87 106z"/>
<path style="fill:#a9735a; stroke:none;" d="M91 106L92 107L91 106M11 107L12 108L11 107M50 107L51 108L50 107z"/>
<path style="fill:#a7bbb6; stroke:none;" d="M56 107L59 110L56 107M63 107L64 108L63 107M86 107L87 108L86 107M90 107L91 108L90 107M95 107L96 108L95 107M8 108L10 111L8 108z"/>
<path style="fill:#a9735a; stroke:none;" d="M12 108L13 109L12 108z"/>
<path style="fill:#a7bbb6; stroke:none;" d="M49 108L50 109L49 108z"/>
<path style="fill:#0fb2ac; stroke:none;" d="M73 121C68.5014 115.932 47.6358 100.229 47.6358 117.907C47.6358 128.999 68.1175 123.748 73 121z"/>
<path style="fill:#a9735a; stroke:none;" d="M94 108L95 109L94 108M9 109L10 110L9 109M13 109L14 110L13 109z"/>
<path style="fill:#a7bbb6; stroke:none;" d="M48 109L49 110L48 109M53 109L54 110L53 109M66 109L67 110L66 109z"/>
<path style="fill:#a9735a; stroke:none;" d="M89 109L90 110L89 109z"/>
<path style="fill:#a7bbb6; stroke:none;" d="M11 110L12 111L11 110M14 110L15 111L14 110z"/>
<path style="fill:#a9735a; stroke:none;" d="M46 110L47 111L46 110z"/>
<path style="fill:#a7bbb6; stroke:none;" d="M47 110L48 111L47 110M52 110L53 111L52 110M67 110L68 111L67 110M84 110L85 111L84 110M88 110L89 111L88 110M93 110L94 111L93 110M10 111L11 112L10 111z"/>
<path style="fill:#a9735a; stroke:none;" d="M12 111L13 112L12 111M16 111L17 112L16 111M45 111L46 112L45 111z"/>
<path style="fill:#a7bbb6; stroke:none;" d="M51 111L52 112L51 111M61 111L62 112L61 111M83 111L84 112L83 111M87 111L88 112L87 111z"/>
<path style="fill:#a9735a; stroke:none;" d="M92 111L93 112L92 111M14 112L15 113L14 112z"/>
<path style="fill:#a7bbb6; stroke:none;" d="M17 113L17 114L22 114L17 113z"/>
<path style="fill:#a9735a; stroke:none;" d="M43 112L44 113L43 112z"/>
<path style="fill:#a7bbb6; stroke:none;" d="M44 112L45 113L44 112M50 112L51 113L50 112M62 112L63 113L62 112M70 112L71 113L70 112M82 112L83 113L82 112M86 112L87 113L86 112M13 113L14 114L13 113z"/>
<path style="fill:#a9735a; stroke:none;" d="M16 113L17 114L16 113z"/>
<path style="fill:#fdfdfd; stroke:none;" d="M18 113L19 114L18 113z"/>
<path style="fill:#a9735a; stroke:none;" d="M20 114L20 115L24 115L20 114z"/>
<path style="fill:#a7bbb6; stroke:none;" d="M42 113L43 114L42 113M49 113L50 114L49 113M71 113L72 114L71 113M15 114L16 115L15 114M40 114L41 115L40 114M48 114L49 115L48 114M65 114L66 115L65 114M80 114L81 115L80 114M90 114L91 115L90 114M17 115L18 116L17 115z"/>
<path style="fill:#a9735a; stroke:none;" d="M18 115L19 116L18 115M37 115L38 116L37 115z"/>
<path style="fill:#a7bbb6; stroke:none;" d="M38 115L39 116L38 115M47 115L48 116L47 115M66 115L67 116L66 115M74 115L75 116L74 115M79 115L80 116L79 115z"/>
<path style="fill:#a9735a; stroke:none;" d="M84 115L85 116L84 115z"/>
<path style="fill:#a7bbb6; stroke:none;" d="M89 115L90 116L89 115M19.6667 116.333L20.3333 116.667L19.6667 116.333z"/>
<path style="fill:#a9735a; stroke:none;" d="M21 116L22 117L21 116M34 116L35 117L34 116z"/>
<path style="fill:#a7bbb6; stroke:none;" d="M35 116L36 117L35 116M75 116L76 117L75 116M78 116L79 117L78 116z"/>
<path style="fill:#a9735a; stroke:none;" d="M83 116L84 117L83 116M88 116L89 117L88 116z"/>
<path style="fill:#a7bbb6; stroke:none;" d="M23 117L23 118L27 118L23 117z"/>
<path style="fill:#a9735a; stroke:none;" d="M27 117L28 118L27 117z"/>
<path style="fill:#a7bbb6; stroke:none;" d="M28 117L28 118L32 118L28 117M69 117L70 118L69 117M76.6667 117.333L77.3333 117.667L76.6667 117.333z"/>
<path style="fill:#a9735a; stroke:none;" d="M82 117L83 118L82 117M87 117L88 118L87 117z"/>
<path style="fill:#a7bbb6; stroke:none;" d="M46 118L47 119L46 118M70 118L71 119L70 118z"/>
<path style="fill:#a9735a; stroke:none;" d="M81 118L82 119L81 118M86 118L87 119L86 118M85 119L86 120L85 119z"/>
<path style="fill:#a7bbb6; stroke:none;" d="M73 120L74 121L73 120M78 120L79 121L78 120z"/>
<path style="fill:#a9735a; stroke:none;" d="M84 120L85 121L84 120z"/>
<path style="fill:#a7bbb6; stroke:none;" d="M49 121L50 122L49 121M72 121L73 122L72 121M77 121L78 122L77 121z"/>
<path style="fill:#a9735a; stroke:none;" d="M83 121L84 122L83 121z"/>
<path style="fill:#a7bbb6; stroke:none;" d="M50 122L51 123L50 122M70 122L71 123L70 122z"/>
<path style="fill:#a9735a; stroke:none;" d="M76 122L77 123L76 122z"/>
<path style="fill:#a7bbb6; stroke:none;" d="M82 122L83 123L82 122M52 123L53 124L52 123M68 123L69 124L68 123M74 123L75 124L74 123M81 123L82 124L81 123M55.6667 124.333L56.3333 124.667L55.6667 124.333M64.6667 124.333L65.3333 124.667L64.6667 124.333z"/>
<path style="fill:#a9735a; stroke:none;" d="M73 124L74 125L73 124M79 124L80 125L79 124z"/>
<path style="fill:#a7bbb6; stroke:none;" d="M71 125L72 126L71 125M78 125L79 126L78 125M52 126L52 127L57 128L52 126M68 126L69 127L68 126z"/>
<path style="fill:#a9735a; stroke:none;" d="M69 126L70 127L69 126M76 126L77 127L76 126z"/>
<path style="fill:#a7bbb6; stroke:none;" d="M65 127L66 128L65 127z"/>
<path style="fill:#a9735a; stroke:none;" d="M66.6667 127.333L67.3333 127.667L66.6667 127.333M74 127L75 128L74 127M56 128L57 129L56 128z"/>
<path style="fill:#6c574b; stroke:none;" d="M57.6667 128.333L58.3333 128.667L57.6667 128.333z"/>
<path style="fill:#a9735a; stroke:none;" d="M59 130L63 129L59 130M71 128L72 129L71 128z"/>
<path style="fill:#a7bbb6; stroke:none;" d="M72 128L73 129L72 128M58 129L59 130L58 129z"/>
<path style="fill:#a9735a; stroke:none;" d="M67.6667 129.333L68.3333 129.667L67.6667 129.333z"/>
<path style="fill:#a7bbb6; stroke:none;" d="M69 129L70 130L69 129M63 130L64 131L63 130z"/>
</svg>
