<?xml version="1.0" standalone="no"?>
<!DOCTYPE svg PUBLIC "-//W3C//DTD SVG 20010904//EN"
 "http://www.w3.org/TR/2001/REC-SVG-20010904/DTD/svg10.dtd">
<svg version="1.0" xmlns="http://www.w3.org/2000/svg"
 width="776.000000pt" height="726.000000pt" viewBox="0 0 776.000000 726.000000"
 preserveAspectRatio="xMidYMid meet">

<g transform="translate(0.000000,726.000000) scale(0.100000,-0.100000)"
fill="#000000" stroke="none">
<path d="M5475 6849 c-22 -4 -68 -8 -102 -8 -34 -1 -65 -5 -68 -11 -3 -5 -26
-10 -50 -10 -24 0 -47 -4 -50 -10 -3 -5 -17 -10 -31 -10 -13 0 -32 -4 -42 -9
-9 -5 -45 -18 -79 -27 -35 -10 -63 -21 -63 -26 0 -4 -11 -8 -24 -8 -31 0 -196
-64 -176 -68 8 -1 44 9 79 23 36 14 79 25 97 25 18 0 34 5 36 11 5 15 385 14
404 -2 9 -7 33 -10 62 -7 26 3 41 3 35 1 -7 -3 -13 -9 -13 -14 0 -11 47 -12
54 0 7 11 -38 31 -70 31 -13 0 -32 4 -42 9 -9 4 -30 13 -47 18 -16 6 -38 14
-48 18 -13 6 -16 3 -11 -9 8 -21 -19 -21 -50 -1 -17 11 -30 13 -47 7 -13 -5
-46 -13 -73 -16 -45 -7 -48 -6 -33 8 8 9 28 16 44 16 16 0 33 4 39 9 8 9 58
15 199 27 33 2 93 8 133 12 40 4 76 4 78 0 3 -4 26 -8 51 -8 44 0 138 -22 175
-41 10 -5 27 -9 37 -9 11 0 23 -5 26 -10 4 -6 21 -16 39 -24 18 -8 52 -33 75
-56 29 -30 45 -40 53 -32 11 11 -57 81 -79 82 -7 0 -13 5 -13 10 0 6 -5 10
-10 10 -6 0 -28 11 -50 25 -22 14 -47 25 -55 25 -8 0 -23 4 -33 9 -40 20 -92
31 -150 31 -33 0 -64 5 -67 10 -7 12 -82 11 -140 -1z"/>
<path d="M5540 6679 c-12 -8 -9 -10 13 -6 21 3 27 1 23 -9 -3 -8 1 -14 10 -14
8 0 24 -9 36 -20 24 -22 72 -28 66 -7 -3 6 -15 13 -27 15 -12 2 -25 10 -28 18
-3 8 -13 14 -23 14 -11 0 -22 5 -25 10 -8 13 -26 13 -45 -1z"/>
<path d="M4738 6643 c7 -3 16 -2 19 1 4 3 -2 6 -13 5 -11 0 -14 -3 -6 -6z"/>
<path d="M6080 6635 c0 -8 5 -15 10 -15 6 0 10 -9 10 -21 0 -14 5 -19 14 -16
9 4 12 0 9 -12 -3 -11 5 -22 20 -30 24 -13 37 -47 38 -95 0 -17 2 -18 15 -4
14 14 13 21 -10 72 -14 31 -29 56 -33 56 -5 0 -19 18 -33 40 -25 42 -40 51
-40 25z"/>
<path d="M5670 6590 c0 -5 5 -10 10 -10 6 0 10 5 10 10 0 6 -4 10 -10 10 -5 0
-10 -4 -10 -10z"/>
<path d="M5710 6589 c0 -19 29 -79 38 -79 32 1 38 40 6 40 -8 0 -14 4 -14 8 0
5 -7 17 -15 28 -12 16 -14 16 -15 3z"/>
<path d="M1968 6573 c7 -3 16 -2 19 1 4 3 -2 6 -13 5 -11 0 -14 -3 -6 -6z"/>
<path d="M5760 6484 c0 -3 7 -12 15 -20 8 -8 19 -23 25 -32 8 -15 11 -15 20
-2 14 21 12 30 -4 30 -8 0 -16 7 -20 15 -5 14 -36 22 -36 9z"/>
<path d="M6207 6417 c-3 -7 -1 -20 3 -28 7 -11 10 -10 16 4 4 10 2 23 -3 28
-7 7 -12 6 -16 -4z"/>
<path d="M5820 6397 c0 -23 36 -88 44 -80 4 4 5 -4 1 -18 -4 -18 -1 -31 9 -42
11 -10 16 -34 16 -72 0 -32 4 -54 9 -50 5 3 9 19 9 35 -1 17 2 33 5 37 4 3 0
18 -7 32 -7 14 -24 59 -36 99 -14 42 -29 72 -37 72 -7 0 -13 -6 -13 -13z"/>
<path d="M6228 6334 c-3 -27 0 -58 6 -69 5 -11 10 -50 11 -86 0 -42 6 -73 15
-84 11 -13 14 -43 11 -125 -1 -69 1 -110 8 -115 8 -4 11 40 11 147 -1 140 -2
151 -16 133 -14 -18 -15 -13 -9 67 7 87 1 123 -16 97 -6 -9 -7 -2 -3 18 3 17
2 39 -4 49 -8 14 -11 7 -14 -32z"/>
<path d="M1055 6240 c3 -5 8 -10 11 -10 2 0 4 5 4 10 0 6 -5 10 -11 10 -5 0
-7 -4 -4 -10z"/>
<path d="M5910 5958 c0 -96 3 -138 10 -128 13 20 13 270 0 270 -6 0 -10 -54
-10 -142z"/>
<path d="M6247 6053 c-11 -10 -8 -241 3 -248 6 -4 10 40 10 124 0 72 -1 131
-3 131 -2 0 -7 -3 -10 -7z"/>
<path d="M5896 5734 c-4 -32 -12 -84 -18 -114 -6 -30 -12 -64 -12 -75 -1 -11
-7 -30 -14 -42 -14 -25 -16 -63 -3 -63 15 0 22 24 51 185 13 71 17 143 9 157
-4 6 -10 -15 -13 -48z"/>
<path d="M6257 5770 c-3 -8 -8 -28 -10 -45 -4 -27 -4 -26 -6 8 0 20 -6 37 -12
37 -6 0 -8 -7 -5 -16 3 -9 6 -28 6 -44 0 -38 34 -35 38 4 5 38 -3 75 -11 56z"/>
<path d="M6237 5647 c-4 -15 -11 -26 -16 -23 -13 8 -29 -37 -20 -59 4 -11 8
-35 8 -53 1 -38 21 -34 21 4 0 14 5 34 11 45 5 11 9 41 7 67 -3 42 -4 44 -11
19z m-7 -64 c0 -20 -3 -24 -11 -16 -7 7 -9 19 -6 27 10 24 17 19 17 -11z"/>
<path d="M6181 5463 c0 -28 3 -55 9 -58 13 -8 24 43 12 58 -5 6 -12 21 -15 32
-2 11 -5 -3 -6 -32z"/>
<path d="M5827 5423 c-11 -10 -8 -63 3 -63 6 0 10 16 10 35 0 36 -2 40 -13 28z"/>
<path d="M6150 5393 c0 -5 6 -25 14 -47 13 -39 13 -39 17 -10 6 41 0 64 -17
64 -8 0 -14 -3 -14 -7z"/>
<path d="M5804 5325 c-3 -14 -4 -28 -1 -31 10 -10 27 7 27 26 0 30 -19 33 -26
5z"/>
<path d="M6141 5333 c0 -10 4 -36 8 -58 l9 -40 1 52 c0 28 -3 55 -9 58 -5 3
-10 -2 -9 -12z"/>
<path d="M6116 5283 c-9 -9 -7 -48 3 -58 5 -6 11 -19 14 -30 3 -11 5 3 6 32 1
49 -8 71 -23 56z"/>
<path d="M5780 5270 c0 -5 5 -10 10 -10 6 0 10 5 10 10 0 6 -4 10 -10 10 -5 0
-10 -4 -10 -10z"/>
<path d="M5777 5222 c-10 -10 -17 -28 -17 -40 0 -11 -4 -24 -10 -27 -5 -3 -10
-17 -10 -31 0 -13 -4 -24 -10 -24 -5 0 -10 -9 -10 -19 0 -11 -4 -23 -10 -26
-5 -3 -9 -18 -9 -33 2 -24 2 -24 6 -4 6 30 23 28 23 -3 0 -16 -6 -25 -15 -25
-8 0 -15 -6 -15 -14 0 -29 16 -24 35 10 14 26 16 37 7 46 -7 7 -12 23 -12 38
1 23 2 24 14 7 12 -16 14 -16 20 -1 3 8 3 27 0 41 -5 18 -3 24 5 19 12 -8 14
1 11 53 -1 22 2 31 9 27 6 -4 11 0 11 8 0 20 -3 20 -23 -2z"/>
<path d="M6106 5152 c-4 -12 -11 -20 -16 -17 -11 7 -21 -22 -13 -41 3 -9 2
-19 -4 -23 -12 -8 -43 -70 -43 -88 0 -7 7 -13 16 -13 10 0 14 6 11 14 -3 8 1
17 10 20 9 4 13 14 10 26 -3 10 1 24 9 31 8 6 14 21 14 33 0 12 5 27 11 33 6
6 9 19 7 29 -4 17 -5 16 -12 -4z"/>
<path d="M5681 4977 c0 -9 -6 -25 -12 -36 -8 -11 -9 -32 -5 -57 6 -31 10 -35
17 -22 6 12 5 24 -3 38 -11 17 -11 22 0 29 8 5 12 20 9 37 -2 16 -5 21 -6 11z"/>
<path d="M6080 4944 c0 -12 6 -15 25 -10 18 5 25 2 25 -9 0 -9 9 -15 21 -15
13 0 23 -8 26 -21 4 -16 12 -20 30 -16 18 3 25 -1 29 -19 5 -19 11 -23 30 -18
17 4 26 1 30 -10 3 -9 15 -16 25 -16 10 0 19 -4 19 -10 0 -5 9 -10 20 -10 11
0 20 -7 20 -15 0 -8 9 -15 20 -15 10 0 33 -13 49 -29 22 -21 36 -28 52 -24 18
5 21 3 16 -11 -6 -14 -3 -16 13 -11 13 4 22 1 26 -9 3 -9 14 -16 24 -16 9 0
25 -9 35 -20 10 -11 26 -20 37 -20 10 0 17 -6 16 -12 -2 -7 6 -13 16 -13 11 0
21 -6 24 -13 2 -6 15 -12 28 -12 14 0 27 -6 30 -14 3 -8 22 -21 42 -30 20 -8
50 -26 66 -40 16 -14 32 -23 37 -21 8 5 75 -28 94 -46 5 -5 16 -9 24 -9 11 0
9 5 -7 20 -12 11 -28 20 -37 20 -8 0 -15 3 -15 8 0 8 -48 32 -66 32 -7 0 -14
4 -16 9 -4 11 -114 81 -128 81 -5 0 -10 3 -10 8 0 4 -17 15 -37 24 -42 19 -95
50 -103 59 -3 3 -36 23 -75 43 -38 21 -83 45 -100 55 -16 10 -50 30 -75 45
-25 15 -53 29 -62 33 -10 3 -18 9 -18 14 0 5 -6 9 -13 9 -7 0 -35 14 -63 32
-96 62 -124 72 -124 42z"/>
<path d="M5616 4826 c-35 -76 -28 -96 8 -22 15 31 26 62 23 69 -2 6 -16 -14
-31 -47z"/>
<path d="M5570 4720 c0 -11 -4 -20 -10 -20 -5 0 -10 -8 -10 -17 0 -15 2 -16
10 -3 5 8 12 11 16 7 4 -4 13 -2 21 4 15 13 18 43 3 34 -5 -3 -10 -1 -10 4 0
6 -4 11 -10 11 -5 0 -10 -9 -10 -20z"/>
<path d="M5530 4647 c0 -10 -7 -28 -15 -41 -14 -21 -14 -24 0 -36 13 -10 15
-9 15 9 0 12 6 30 12 41 10 15 10 22 0 32 -9 9 -12 8 -12 -5z"/>
<path d="M6570 4570 c0 -5 5 -10 10 -10 6 0 10 5 10 10 0 6 -4 10 -10 10 -5 0
-10 -4 -10 -10z"/>
<path d="M5483 4538 c-5 -7 -16 -29 -23 -48 -8 -19 -20 -39 -27 -43 -7 -4 -13
-15 -13 -23 0 -8 -8 -26 -17 -40 -61 -94 -87 -150 -78 -171 8 -17 8 -17 12 0
3 9 9 17 14 17 6 0 7 9 4 20 -4 13 -1 22 8 26 9 3 21 20 28 37 7 18 21 44 31
59 10 14 18 36 18 47 0 12 4 21 9 21 5 0 15 16 22 35 7 19 19 35 26 35 15 0
16 9 4 28 -6 11 -10 11 -18 0z"/>
<path d="M6665 4510 c3 -5 11 -10 16 -10 6 0 7 5 4 10 -3 6 -11 10 -16 10 -6
0 -7 -4 -4 -10z"/>
<path d="M6870 4400 c0 -5 7 -10 16 -10 8 0 12 5 9 10 -3 6 -10 10 -16 10 -5
0 -9 -4 -9 -10z"/>
<path d="M7050 4395 c0 -8 7 -15 16 -15 9 0 18 -9 21 -20 5 -20 27 -27 37 -12
7 11 -4 24 -36 45 -33 21 -38 21 -38 2z"/>
<path d="M6920 4370 c0 -5 11 -12 25 -16 29 -7 33 -20 8 -28 -10 -2 0 -2 22 0
36 5 38 4 22 -9 -14 -12 -15 -16 -3 -26 11 -9 15 -8 20 4 3 8 12 15 21 15 29
0 15 17 -32 37 -69 30 -83 34 -83 23z"/>
<path d="M7145 4340 c-8 -13 3 -31 18 -29 33 4 49 -2 43 -16 -3 -10 1 -15 12
-15 22 0 72 -22 72 -32 0 -5 7 -8 15 -8 8 0 15 -4 15 -10 0 -5 9 -10 20 -10
11 0 20 -7 20 -15 0 -14 46 -32 56 -22 8 8 -37 45 -87 71 -52 27 -120 65 -134
76 -20 14 -44 19 -50 10z"/>
<path d="M6840 4320 c0 -5 7 -10 15 -10 8 0 15 5 15 10 0 6 -7 10 -15 10 -8 0
-15 -4 -15 -10z"/>
<path d="M6895 4300 c3 -5 8 -10 11 -10 2 0 4 5 4 10 0 6 -5 10 -11 10 -5 0
-7 -4 -4 -10z"/>
<path d="M7044 4283 c-33 -35 -24 -40 20 -11 20 14 33 28 29 31 -12 12 -24 7
-49 -20z"/>
<path d="M6935 4281 c-7 -12 12 -24 25 -16 11 7 4 25 -10 25 -5 0 -11 -4 -15
-9z"/>
<path d="M7098 4260 c-7 -11 -18 -20 -25 -20 -15 0 -16 -9 -4 -29 10 -16 31
-6 31 15 0 7 9 19 20 26 24 15 26 28 5 28 -8 0 -20 -9 -27 -20z"/>
<path d="M7150 4229 c0 -30 5 -31 38 -6 9 8 8 13 -5 23 -27 20 -33 17 -33 -17z"/>
<path d="M7183 4190 c-18 -17 -40 -30 -49 -28 -23 4 -30 -19 -7 -24 23 -4 63
13 63 28 0 19 26 23 53 9 22 -11 28 -11 38 1 6 8 9 18 5 21 -4 4 -11 2 -15 -5
-6 -9 -12 -7 -26 8 -23 26 -24 26 -62 -10z"/>
<path d="M5291 4187 c-6 -14 -14 -28 -20 -31 -11 -7 -41 -64 -41 -78 0 -4 7
-8 16 -8 8 0 13 4 10 9 -6 10 16 61 27 61 4 0 7 7 7 15 0 9 6 12 15 9 10 -4
15 0 15 14 0 31 -19 37 -29 9z"/>
<path d="M6951 4174 c0 -11 3 -14 6 -6 3 7 2 16 -1 19 -3 4 -6 -2 -5 -13z"/>
<path d="M7430 4170 c-13 -24 -4 -43 10 -20 7 11 11 12 24 0 27 -21 28 -5 2
19 l-24 23 -12 -22z"/>
<path d="M7020 4170 c0 -5 5 -10 10 -10 6 0 10 5 10 10 0 6 -4 10 -10 10 -5 0
-10 -4 -10 -10z"/>
<path d="M7281 4154 c-20 -23 0 -37 27 -18 12 8 20 20 17 25 -9 13 -28 10 -44
-7z"/>
<path d="M6823 4148 c2 -7 10 -13 17 -13 7 0 15 6 18 13 2 7 -5 12 -18 12 -13
0 -20 -5 -17 -12z"/>
<path d="M7201 4119 c8 -17 59 -25 59 -9 -1 14 -18 25 -42 27 -24 1 -26 -2
-17 -18z"/>
<path d="M7322 4120 c-12 -11 -28 -20 -37 -20 -8 0 -15 -7 -15 -15 0 -23 28
-18 55 11 24 26 55 27 55 3 0 -16 62 -79 72 -73 14 9 9 22 -12 29 -11 4 -18
11 -14 16 7 11 -53 69 -71 69 -6 0 -21 -9 -33 -20z"/>
<path d="M7483 4123 c-22 -8 -14 -23 11 -23 14 0 28 -4 31 -10 3 -5 1 -10 -4
-10 -6 0 -11 -5 -11 -11 0 -6 9 -8 20 -4 16 5 20 2 20 -14 0 -24 18 -28 26 -7
3 9 -9 30 -30 50 -36 36 -41 39 -63 29z"/>
<path d="M5215 4053 c5 -19 3 -22 -10 -16 -13 4 -16 1 -14 -12 2 -10 9 -20 16
-22 17 -6 29 46 13 60 -10 9 -11 7 -5 -10z"/>
<path d="M7303 4053 c-20 -8 -15 -23 7 -23 11 0 20 7 20 15 0 15 -6 17 -27 8z"/>
<path d="M7088 4033 c-119 -5 -113 -23 7 -23 78 0 95 3 95 15 0 8 -3 14 -7 13
-5 -1 -47 -4 -95 -5z"/>
<path d="M7580 4020 c0 -11 0 -23 0 -27 0 -5 9 -9 20 -9 23 -1 23 -2 8 31 -13
30 -28 33 -28 5z"/>
<path d="M6720 4005 c0 -8 9 -15 20 -15 11 0 20 7 20 15 0 8 -9 15 -20 15 -11
0 -20 -7 -20 -15z"/>
<path d="M7405 3999 c-4 -6 -4 -13 -1 -16 8 -8 36 5 36 17 0 13 -27 13 -35 -1z"/>
<path d="M7470 4001 c0 -5 11 -16 25 -25 14 -9 25 -23 25 -31 0 -7 10 -21 21
-29 13 -9 19 -21 16 -30 -8 -20 -27 -21 -27 -1 0 9 -7 18 -15 21 -8 4 -15 12
-15 19 0 13 -48 30 -58 20 -3 -3 -1 -5 5 -5 16 0 53 -36 53 -51 0 -19 38 -51
45 -39 4 6 15 10 26 10 22 0 25 22 5 39 -8 7 -17 23 -20 36 -4 14 -11 25 -16
25 -6 0 -15 11 -20 25 -9 24 -50 37 -50 16z"/>
<path d="M5170 3992 c0 -4 -8 -17 -18 -28 -28 -30 -35 -56 -14 -52 9 2 18 13
20 26 2 12 10 22 18 22 16 0 19 26 4 35 -5 3 -10 2 -10 -3z"/>
<path d="M7612 3948 c-17 -17 -15 -28 4 -21 11 4 22 -1 30 -12 13 -18 14 -18
14 -1 0 15 -22 46 -32 46 -2 0 -9 -5 -16 -12z"/>
<path d="M7433 3893 c-7 -2 -13 -11 -13 -19 0 -11 8 -14 28 -12 16 2 27 9 27
18 0 15 -21 22 -42 13z"/>
<path d="M5085 3863 c-11 -15 -37 -51 -57 -81 -32 -48 -35 -57 -22 -70 8 -8
18 -11 22 -8 3 4 0 11 -8 16 -11 7 -9 14 13 36 15 15 27 33 27 40 0 8 6 14 13
14 12 0 36 30 49 63 11 27 -14 20 -37 -10z"/>
<path d="M6593 3883 c-26 -10 -11 -19 32 -18 29 0 45 4 45 13 0 12 -52 16 -77
5z"/>
<path d="M6830 3880 c0 -6 102 -10 285 -10 183 0 285 4 285 10 0 6 -102 10
-285 10 -183 0 -285 -4 -285 -10z"/>
<path d="M7667 3876 c-4 -10 -7 -32 -7 -49 l1 -32 14 27 c10 17 12 34 7 49 -8
20 -9 20 -15 5z"/>
<path d="M7590 3818 c0 -39 14 -66 24 -49 9 14 -2 69 -15 76 -5 4 -9 -9 -9
-27z"/>
<path d="M7690 3812 c0 -13 -5 -32 -11 -43 -9 -17 -7 -21 11 -26 19 -5 21 -12
19 -52 -5 -97 1 -212 11 -206 6 4 10 58 10 130 0 72 -4 126 -10 130 -5 3 -10
18 -10 33 0 15 -5 34 -10 42 -8 12 -10 10 -10 -8z"/>
<path d="M6388 3763 c7 -3 16 -2 19 1 4 3 -2 6 -13 5 -11 0 -14 -3 -6 -6z"/>
<path d="M7540 3760 c-13 -9 -13 -11 0 -20 10 -6 16 -6 18 0 7 20 -3 30 -18
20z"/>
<path d="M7400 3750 c0 -5 9 -10 20 -10 11 0 20 5 20 10 0 6 -9 10 -20 10 -11
0 -20 -4 -20 -10z"/>
<path d="M7480 3745 c0 -8 5 -15 10 -15 6 0 10 7 10 15 0 8 -4 15 -10 15 -5 0
-10 -7 -10 -15z"/>
<path d="M6640 3740 c0 -5 5 -10 10 -10 6 0 10 5 10 10 0 6 -4 10 -10 10 -5 0
-10 -4 -10 -10z"/>
<path d="M7338 3743 c7 -3 16 -2 19 1 4 3 -2 6 -13 5 -11 0 -14 -3 -6 -6z"/>
<path d="M6400 3730 c0 -5 4 -10 9 -10 5 0 16 -3 25 -6 11 -4 16 -1 16 10 0
10 -9 16 -25 16 -14 0 -25 -4 -25 -10z"/>
<path d="M7610 3731 c0 -5 7 -11 15 -15 9 -3 15 0 15 9 0 8 -7 15 -15 15 -8 0
-15 -4 -15 -9z"/>
<path d="M7570 3720 c0 -5 5 -10 10 -10 6 0 10 5 10 10 0 6 -4 10 -10 10 -5 0
-10 -4 -10 -10z"/>
<path d="M7500 3710 c0 -5 7 -10 15 -10 8 0 15 5 15 10 0 6 -7 10 -15 10 -8 0
-15 -4 -15 -10z"/>
<path d="M4960 3686 c0 -14 29 -31 38 -22 2 3 2 12 -1 21 -8 19 -37 20 -37 1z"/>
<path d="M7630 3671 c0 -12 5 -21 10 -21 6 0 10 6 10 14 0 8 -4 18 -10 21 -5
3 -10 -3 -10 -14z"/>
<path d="M4931 3647 c-11 -21 -12 -30 -3 -39 17 -17 24 -5 20 33 l-3 33 -14
-27z"/>
<path d="M7524 3617 c-7 -20 1 -47 16 -47 12 0 13 30 0 50 -8 12 -10 12 -16
-3z"/>
<path d="M7643 3613 c-15 -5 -17 -33 -3 -33 6 0 10 -20 10 -45 0 -25 4 -45 9
-45 5 0 7 28 4 63 -7 71 -5 66 -20 60z"/>
<path d="M7570 3581 c0 -17 5 -33 10 -36 6 -3 10 1 10 9 0 9 5 16 10 16 6 0
10 9 10 20 0 13 -7 20 -20 20 -15 0 -20 -7 -20 -29z"/>
<path d="M4859 3553 c-18 -27 -36 -49 -41 -51 -4 -2 -8 -9 -8 -16 0 -7 -12
-23 -26 -37 -38 -35 -76 -98 -70 -116 4 -10 1 -13 -12 -10 -12 4 -39 -22 -97
-94 -81 -102 -109 -133 -202 -233 -29 -30 -53 -62 -53 -71 0 -8 -7 -15 -15
-15 -18 0 -20 -16 -3 -26 7 -4 14 -1 16 7 3 8 30 38 61 68 31 30 55 60 53 67
-1 7 34 50 78 96 44 45 80 86 80 90 0 5 10 8 23 9 12 0 16 3 10 6 -7 2 -13 9
-13 14 0 6 5 7 10 4 6 -3 10 -2 10 4 0 5 5 22 10 37 8 20 14 24 22 16 13 -13
48 25 48 52 0 9 5 16 11 16 6 0 17 6 25 14 10 11 11 15 1 19 -7 3 2 18 26 41
20 20 37 41 37 46 0 6 6 10 13 10 7 0 18 9 25 21 9 14 10 19 2 14 -8 -5 -11
-1 -8 11 2 12 12 19 24 18 16 0 20 5 16 18 -7 28 -18 22 -53 -29z"/>
<path d="M6382 3588 c3 -7 15 -15 27 -16 16 -3 22 1 19 10 -3 7 -15 15 -27 16
-16 3 -22 -1 -19 -10z"/>
<path d="M6561 3591 c-23 -14 41 -16 502 -13 270 2 437 6 437 12 0 13 -919 13
-939 1z"/>
<path d="M7538 3478 c-3 -7 -22 -11 -51 -10 -28 2 -47 -1 -47 -8 0 -5 13 -10
28 -10 15 0 34 -6 41 -12 10 -11 16 -8 31 12 11 14 20 28 20 33 0 12 -18 8
-22 -5z"/>
<path d="M7594 3466 c-15 -12 -16 -17 -7 -27 10 -10 15 -9 28 1 13 10 15 9 15
-9 0 -11 5 -21 11 -21 7 0 8 7 4 18 -4 9 -10 25 -12 35 -6 21 -13 21 -39 3z"/>
<path d="M7683 3459 c4 -13 7 -33 7 -43 0 -14 3 -17 11 -9 14 14 7 65 -10 71
-10 4 -12 -1 -8 -19z"/>
<path d="M6273 3463 c9 -2 25 -2 35 0 9 3 1 5 -18 5 -19 0 -27 -2 -17 -5z"/>
<path d="M6150 3440 c0 -5 9 -10 20 -10 11 0 20 5 20 10 0 6 -9 10 -20 10 -11
0 -20 -4 -20 -10z"/>
<path d="M7490 3391 c0 -6 5 -13 10 -16 6 -3 10 -15 10 -26 0 -11 5 -17 10
-14 6 3 10 19 10 36 0 22 -5 29 -20 29 -11 0 -20 -4 -20 -9z"/>
<path d="M7593 3382 c-19 -3 -21 -6 -11 -28 14 -31 26 -31 34 1 7 30 6 32 -23
27z"/>
<path d="M7670 3370 c0 -10 -11 -39 -24 -62 -13 -24 -27 -54 -31 -68 -7 -22
-7 -23 9 -7 19 19 66 120 66 142 0 8 -4 15 -10 15 -5 0 -10 -9 -10 -20z"/>
<path d="M7420 3325 c0 -8 9 -15 20 -15 11 0 20 7 20 15 0 8 -9 15 -20 15 -11
0 -20 -7 -20 -15z"/>
<path d="M5973 3313 c-20 -8 -15 -23 7 -23 11 0 20 7 20 15 0 15 -6 17 -27 8z"/>
<path d="M6100 3310 c0 -5 11 -10 25 -10 14 0 25 5 25 10 0 6 -11 10 -25 10
-14 0 -25 -4 -25 -10z"/>
<path d="M7510 3224 c0 -17 22 -14 28 4 2 7 -3 12 -12 12 -9 0 -16 -7 -16 -16z"/>
<path d="M7454 3195 c-5 -19 -13 -25 -35 -25 -19 0 -29 -5 -29 -15 0 -19 29
-19 54 0 11 8 28 15 38 15 24 0 23 27 -2 40 -17 9 -20 7 -26 -15z"/>
<path d="M7323 3203 c-7 -2 -13 -11 -13 -19 0 -16 42 -4 48 14 4 12 -13 15
-35 5z"/>
<path d="M7577 3190 c-9 -11 -17 -24 -17 -28 0 -4 -18 -17 -41 -30 -22 -13
-43 -30 -46 -38 -3 -8 -15 -14 -28 -14 -14 0 -25 -7 -28 -20 -3 -11 -13 -23
-24 -27 -10 -4 -23 -13 -29 -21 -6 -8 -16 -12 -22 -8 -13 8 -79 -24 -86 -41
-8 -20 26 -15 54 7 14 11 33 20 43 20 9 0 17 5 17 10 0 6 9 10 20 10 11 0 20
3 20 8 0 4 19 19 43 34 51 33 150 134 145 148 -2 6 -11 1 -21 -10z"/>
<path d="M6090 3185 c0 -10 10 -15 30 -15 20 0 30 5 30 15 0 10 -10 15 -30 15
-20 0 -30 -5 -30 -15z"/>
<path d="M7100 3185 c0 -8 9 -15 20 -15 11 0 20 -4 20 -10 0 -5 7 -10 15 -10
19 0 19 14 -1 34 -20 20 -54 21 -54 1z"/>
<path d="M7210 3185 c0 -8 5 -15 10 -15 6 0 10 7 10 15 0 8 -4 15 -10 15 -5 0
-10 -7 -10 -15z"/>
<path d="M7000 3170 c0 -11 5 -20 10 -20 6 0 10 9 10 20 0 11 -4 20 -10 20 -5
0 -10 -9 -10 -20z"/>
<path d="M5870 3160 c0 -5 4 -10 9 -10 5 0 16 -3 25 -6 11 -4 16 -1 16 10 0
10 -9 16 -25 16 -14 0 -25 -4 -25 -10z"/>
<path d="M7250 3144 c0 -9 7 -14 17 -12 25 5 28 28 4 28 -12 0 -21 -6 -21 -16z"/>
<path d="M7354 3140 c-23 -9 -38 -36 -25 -45 12 -7 55 29 50 42 -2 6 -12 7
-25 3z"/>
<path d="M7220 3120 c-8 -5 -11 -12 -7 -16 4 -4 13 -2 19 4 15 15 7 24 -12 12z"/>
<path d="M7230 3054 c-16 -9 -39 -13 -65 -9 -82 11 -89 11 -93 -7 -3 -16 6
-18 83 -18 67 0 87 3 91 15 4 8 15 15 25 15 10 0 19 5 19 10 0 14 -30 11 -60
-6z"/>
<path d="M6986 3035 c-11 -8 -16 -20 -12 -30 5 -14 10 -12 31 11 14 15 25 29
25 30 0 9 -27 2 -44 -11z"/>
<path d="M5730 3030 c0 -12 24 -12 60 0 21 7 19 8 -17 9 -24 1 -43 -3 -43 -9z"/>
<path d="M5980 3030 c0 -6 92 -10 255 -10 163 0 255 4 255 10 0 6 -92 10 -255
10 -163 0 -255 -4 -255 -10z"/>
<path d="M7335 3031 c-6 -11 9 -23 19 -14 9 9 7 23 -3 23 -6 0 -12 -4 -16 -9z"/>
<path d="M7050 3000 c0 -5 7 -10 16 -10 8 0 12 5 9 10 -3 6 -10 10 -16 10 -5
0 -9 -4 -9 -10z"/>
<path d="M7155 2990 c3 -5 10 -10 16 -10 5 0 9 5 9 10 0 6 -7 10 -16 10 -8 0
-12 -4 -9 -10z"/>
<path d="M7004 2958 c3 -7 9 -21 12 -30 7 -20 13 -22 33 -9 11 7 9 13 -8 30
-23 23 -46 28 -37 9z"/>
<path d="M7090 2955 c-12 -15 -11 -16 16 -13 16 1 28 8 27 13 -3 17 -29 17
-43 0z"/>
<path d="M7188 2921 c-13 -11 -37 -23 -53 -27 -15 -4 -30 -15 -32 -25 -4 -14
-11 -17 -28 -13 -17 4 -25 1 -30 -15 -3 -11 -28 -30 -55 -43 -27 -13 -49 -29
-50 -35 0 -16 -12 -17 -28 -1 -9 9 -15 9 -23 1 -8 -8 -5 -14 10 -23 18 -9 31
-5 84 27 34 21 64 41 65 46 2 4 12 7 22 7 10 0 20 4 22 8 4 10 93 72 103 72 4
0 18 9 32 20 23 18 24 20 6 20 -11 0 -31 -9 -45 -19z"/>
<path d="M5790 2900 c0 -5 7 -10 15 -10 8 0 15 5 15 10 0 6 -7 10 -15 10 -8 0
-15 -4 -15 -10z"/>
<path d="M6490 2895 c0 -11 6 -15 18 -11 51 15 73 17 108 7 21 -6 41 -7 44 -3
3 4 20 9 38 10 23 2 32 -2 32 -13 0 -8 -7 -15 -16 -15 -8 0 -12 -5 -9 -11 5
-7 13 -5 24 5 10 9 30 16 44 16 15 0 27 5 27 10 0 6 7 10 15 10 20 0 19 -16
-2 -24 -12 -5 -14 -9 -5 -18 9 -9 17 -7 34 10 12 12 18 25 14 29 -4 5 -88 9
-187 11 -160 3 -179 2 -179 -13z"/>
<path d="M6970 2900 c0 -5 7 -10 15 -10 8 0 15 5 15 10 0 6 -7 10 -15 10 -8 0
-15 -4 -15 -10z"/>
<path d="M5552 2888 c5 -15 48 -24 48 -10 0 10 -23 22 -42 22 -5 0 -8 -6 -6
-12z"/>
<path d="M6880 2890 c19 -13 30 -13 30 0 0 6 -10 10 -22 10 -19 0 -20 -2 -8
-10z"/>
<path d="M4279 2859 c-29 -42 -68 -79 -81 -79 -7 0 -6 -5 2 -15 17 -20 44 -20
36 1 -4 9 5 24 22 39 50 45 62 58 62 72 0 22 -18 15 -41 -18z"/>
<path d="M6150 2870 c0 -5 5 -10 10 -10 6 0 10 5 10 10 0 6 -4 10 -10 10 -5 0
-10 -4 -10 -10z"/>
<path d="M6924 2869 c-12 -20 12 -32 35 -17 11 7 21 16 21 20 0 12 -48 9 -56
-3z"/>
<path d="M6740 2849 c0 -6 9 -13 20 -16 26 -7 25 -15 -5 -43 -14 -13 -25 -18
-25 -12 0 7 -7 12 -15 12 -24 0 -18 -37 8 -44 42 -11 50 -8 43 19 -5 18 -2 25
9 25 8 0 15 5 15 10 0 6 14 10 30 10 17 0 30 5 30 10 0 6 -10 10 -22 10 -13 1
-34 7 -48 15 -30 17 -40 18 -40 4z"/>
<path d="M6881 2829 c11 -22 29 -25 29 -5 0 7 -9 16 -20 19 -17 4 -18 2 -9
-14z"/>
<path d="M4350 2815 c0 -8 5 -15 10 -15 6 0 10 7 10 15 0 8 -4 15 -10 15 -5 0
-10 -7 -10 -15z"/>
<path d="M6672 2813 c2 -10 10 -18 18 -18 8 0 16 8 18 18 2 12 -3 17 -18 17
-15 0 -20 -5 -18 -17z"/>
<path d="M6840 2795 c-7 -8 -21 -15 -31 -15 -11 0 -19 -7 -19 -15 0 -8 4 -15
9 -15 14 0 80 44 81 53 0 13 -27 8 -40 -8z"/>
<path d="M6293 2764 c-29 -13 -9 -24 41 -24 78 0 118 -10 123 -32 7 -24 18
-23 45 4 16 16 34 22 71 22 32 1 52 -4 54 -11 3 -7 11 -13 20 -13 28 0 6 -24
-35 -38 -23 -7 -42 -20 -42 -28 0 -8 2 -14 3 -14 12 0 75 36 90 52 10 10 29
18 42 18 16 0 25 6 25 15 0 9 -9 15 -25 15 -14 0 -25 -4 -25 -10 0 -5 -5 -10
-11 -10 -7 0 -9 9 -5 23 5 21 3 23 -29 19 -21 -3 -35 0 -35 7 0 6 -11 11 -25
11 -14 0 -25 -5 -25 -11 0 -11 -101 -8 -210 6 -19 2 -41 2 -47 -1z"/>
<path d="M4167 2746 c-9 -24 -10 -23 13 -29 23 -6 25 2 7 27 -13 18 -14 18
-20 2z"/>
<path d="M5540 2735 c0 -17 2 -18 24 -9 23 9 20 24 -4 24 -11 0 -20 -7 -20
-15z"/>
<path d="M5710 2741 c0 -6 92 -11 238 -13 250 -3 312 -1 312 12 0 4 -124 9
-275 9 -173 1 -275 -2 -275 -8z"/>
<path d="M6850 2730 c0 -5 -9 -10 -19 -10 -11 0 -23 -9 -26 -20 -4 -13 -15
-20 -33 -20 -25 0 -26 -1 -8 -17 13 -13 20 -15 23 -5 3 6 14 12 26 12 12 0 28
9 35 20 7 11 19 20 27 20 20 0 19 16 -1 24 -21 8 -24 8 -24 -4z"/>
<path d="M4113 2693 c-16 -20 -19 -31 -11 -40 6 -7 15 -10 21 -6 8 5 7 8 -1
11 -10 3 -10 7 -2 17 6 8 18 11 26 8 16 -6 17 -2 8 21 -8 22 -16 20 -41 -11z"/>
<path d="M6522 2687 c-12 -13 -22 -29 -22 -35 0 -17 20 -15 27 4 3 8 16 20 29
25 13 4 24 13 24 19 0 18 -36 10 -58 -13z"/>
<path d="M6595 2690 c3 -5 8 -10 11 -10 2 0 4 5 4 10 0 6 -5 10 -11 10 -5 0
-7 -4 -4 -10z"/>
<path d="M4060 2636 c-10 -13 -10 -20 -2 -28 16 -16 32 2 23 25 -6 17 -8 18
-21 3z"/>
<path d="M6340 2625 c0 -10 11 -15 35 -15 24 0 35 5 35 15 0 10 -11 15 -35 15
-24 0 -35 -5 -35 -15z"/>
<path d="M6523 2628 c2 -7 10 -13 17 -13 7 0 15 6 18 13 2 7 -5 12 -18 12 -13
0 -20 -5 -17 -12z"/>
<path d="M6715 2630 c-3 -5 -14 -10 -25 -10 -10 0 -20 -7 -24 -15 -3 -9 -18
-15 -36 -15 -16 0 -30 -5 -30 -12 0 -6 -7 -20 -17 -30 -22 -25 2 -23 27 2 11
11 25 20 30 20 12 0 52 22 60 32 3 4 19 14 35 22 26 14 27 16 8 16 -12 0 -25
-4 -28 -10z"/>
<path d="M6280 2620 c0 -5 9 -10 20 -10 11 0 20 5 20 10 0 6 -9 10 -20 10 -11
0 -20 -4 -20 -10z"/>
<path d="M6497 2614 c-4 -4 -7 -14 -7 -23 0 -11 3 -12 11 -4 6 6 10 16 7 23
-2 6 -7 8 -11 4z"/>
<path d="M4034 2598 c3 -10 1 -18 -4 -18 -6 0 -10 -8 -10 -17 0 -16 1 -16 16
-1 13 13 14 20 4 34 -10 17 -11 17 -6 2z"/>
<path d="M5261 2594 c0 -11 3 -14 6 -6 3 7 2 16 -1 19 -3 4 -6 -2 -5 -13z"/>
<path d="M5310 2590 c0 -5 9 -10 20 -10 11 0 20 5 20 10 0 6 -9 10 -20 10 -11
0 -20 -4 -20 -10z"/>
<path d="M1256 2513 c-9 -38 -16 -82 -16 -98 0 -17 -5 -36 -12 -43 -21 -21 1
-382 23 -382 13 0 11 74 -2 87 -20 20 -3 317 26 466 13 63 -1 41 -19 -30z"/>
<path d="M3982 2558 c2 -6 10 -14 16 -16 7 -2 10 2 6 12 -7 18 -28 22 -22 4z"/>
<path d="M6424 2549 c-3 -6 -18 -9 -33 -6 -14 3 -37 -1 -51 -8 -22 -12 -23
-14 -7 -20 9 -4 23 -2 31 4 7 6 21 9 29 5 9 -3 26 3 38 15 13 12 18 21 11 21
-6 0 -14 -5 -18 -11z"/>
<path d="M3947 2530 c-10 -10 -14 -20 -9 -23 7 -5 42 26 42 38 0 10 -16 3 -33
-15z"/>
<path d="M6220 2514 c0 -9 7 -14 17 -12 25 5 28 28 4 28 -12 0 -21 -6 -21 -16z"/>
<path d="M6510 2520 c0 -5 -9 -10 -19 -10 -11 0 -33 -13 -49 -29 -16 -17 -41
-33 -55 -36 -29 -8 -68 -45 -47 -45 12 0 90 40 100 51 3 3 20 12 38 20 17 8
32 17 32 21 0 5 9 8 20 8 11 0 20 7 20 15 0 8 -9 15 -20 15 -11 0 -20 -4 -20
-10z"/>
<path d="M3870 2460 c-18 -16 -28 -30 -23 -30 5 0 20 10 32 21 17 16 25 19 31
9 5 -9 9 -9 14 -1 8 12 0 31 -14 31 -4 0 -22 -13 -40 -30z"/>
<path d="M5267 2473 c-14 -13 -6 -23 18 -23 16 0 25 6 25 15 0 15 -31 21 -43
8z"/>
<path d="M6170 2466 c0 -15 57 -43 67 -33 7 8 -37 46 -54 47 -7 0 -13 -6 -13
-14z"/>
<path d="M5110 2454 c0 -11 5 -14 16 -10 9 3 20 6 25 6 5 0 9 5 9 10 0 6 -11
10 -25 10 -16 0 -25 -6 -25 -16z"/>
<path d="M6130 2460 c0 -5 5 -10 10 -10 6 0 10 5 10 10 0 6 -4 10 -10 10 -5 0
-10 -4 -10 -10z"/>
<path d="M3774 2376 c-23 -22 -60 -56 -83 -75 -45 -36 -49 -46 -25 -55 21 -8
40 4 23 14 -18 11 14 42 35 34 12 -5 15 -2 9 12 -4 11 -3 15 4 11 6 -4 27 11
47 33 20 22 43 40 52 40 14 0 14 3 4 15 -17 20 -19 19 -66 -29z"/>
<path d="M6151 2401 c-10 -17 -9 -21 3 -21 20 0 31 19 18 32 -7 7 -14 3 -21
-11z"/>
<path d="M6010 2375 c0 -9 6 -12 15 -9 8 4 15 10 15 15 0 5 -7 9 -15 9 -8 0
-15 -7 -15 -15z"/>
<path d="M6295 2380 c3 -5 12 -7 20 -3 21 7 19 13 -6 13 -11 0 -18 -4 -14 -10z"/>
<path d="M6076 2368 c4 -6 0 -14 -7 -19 -7 -4 -11 -11 -7 -14 7 -7 48 16 48
26 0 4 -9 9 -20 12 -12 3 -18 1 -14 -5z"/>
<path d="M5938 2363 c-22 -5 -23 -17 -3 -33 18 -15 65 -5 65 14 0 8 -7 17 -16
20 -17 6 -19 6 -46 -1z"/>
<path d="M6232 2355 c-7 -8 -25 -15 -41 -15 -28 0 -67 -31 -54 -43 6 -6 -11
-11 -29 -8 -5 0 -8 -4 -8 -10 0 -6 -9 -9 -20 -6 -14 3 -30 -4 -50 -25 -17 -16
-30 -31 -30 -34 0 -10 27 -2 50 16 14 11 33 20 43 20 9 0 17 3 17 8 0 4 10 12
23 18 43 21 142 77 152 85 5 5 -1 9 -15 9 -14 -1 -31 -7 -38 -15z"/>
<path d="M5240 2335 c0 -10 11 -15 35 -15 24 0 35 5 35 15 0 10 -11 15 -35 15
-24 0 -35 -5 -35 -15z"/>
<path d="M5770 2331 c0 -5 7 -12 16 -15 22 -9 24 -8 24 9 0 8 -9 15 -20 15
-11 0 -20 -4 -20 -9z"/>
<path d="M5840 2324 c0 -9 7 -14 17 -12 25 5 28 28 4 28 -12 0 -21 -6 -21 -16z"/>
<path d="M6020 2334 c-18 -5 -44 -43 -36 -51 7 -7 34 15 47 39 5 10 8 17 7 17
-2 -1 -10 -3 -18 -5z"/>
<path d="M5030 2315 c0 -8 9 -15 20 -15 11 0 20 7 20 15 0 8 -9 15 -20 15 -11
0 -20 -7 -20 -15z"/>
<path d="M5920 2285 c0 -8 7 -15 15 -15 8 0 15 7 15 15 0 8 -7 15 -15 15 -8 0
-15 -7 -15 -15z"/>
<path d="M5810 2249 c0 -4 7 -15 16 -23 8 -9 12 -20 9 -26 -3 -5 -2 -10 3 -10
5 0 12 9 15 20 3 11 13 20 22 20 9 0 15 6 12 13 -4 12 -77 18 -77 6z"/>
<path d="M3579 2212 c-24 -21 -64 -52 -88 -70 -34 -24 -40 -33 -28 -37 9 -4
24 2 36 14 12 12 28 21 36 21 8 0 15 6 15 14 0 7 16 21 35 30 19 9 35 23 35
31 0 8 7 15 16 15 8 0 12 5 9 10 -10 16 -20 12 -66 -28z"/>
<path d="M1198 2234 c-5 -4 -8 -28 -8 -53 1 -36 3 -42 11 -28 11 19 8 93 -3
81z"/>
<path d="M5720 2211 c0 -5 7 -12 16 -15 8 -3 13 -10 10 -15 -6 -8 15 -21 35
-21 21 0 6 30 -23 44 -36 19 -38 19 -38 7z"/>
<path d="M5790 2210 c0 -5 7 -10 15 -10 8 0 15 5 15 10 0 6 -7 10 -15 10 -8 0
-15 -4 -15 -10z"/>
<path d="M5922 2185 c-11 -14 -27 -25 -36 -25 -9 0 -16 -3 -16 -8 0 -13 -88
-54 -100 -47 -9 5 -10 1 -5 -14 5 -18 2 -21 -24 -21 -21 0 -31 -5 -31 -15 0
-22 16 -19 63 13 23 16 58 36 77 45 19 10 53 28 75 42 22 14 48 28 57 31 24 8
13 24 -17 24 -13 0 -32 -11 -43 -25z"/>
<path d="M4971 2184 c0 -11 3 -14 6 -6 3 7 2 16 -1 19 -3 4 -6 -2 -5 -13z"/>
<path d="M5612 2188 c2 -6 12 -16 21 -22 13 -8 21 -6 34 8 17 18 17 19 1 13
-10 -4 -18 -2 -18 3 0 6 -9 10 -21 10 -11 0 -19 -5 -17 -12z"/>
<path d="M4880 2181 c0 -6 17 -7 38 -4 51 8 53 13 4 13 -23 0 -42 -4 -42 -9z"/>
<path d="M5183 2183 c26 -2 67 -2 90 0 23 2 2 3 -48 3 -49 0 -68 -1 -42 -3z"/>
<path d="M5502 2178 c7 -19 38 -22 38 -4 0 10 -9 16 -21 16 -12 0 -19 -5 -17
-12z"/>
<path d="M5697 2153 c-24 -12 -26 -17 -15 -30 11 -13 14 -12 30 7 15 18 25 43
16 39 -2 -1 -16 -8 -31 -16z"/>
<path d="M1177 2103 c-11 -11 -8 -391 3 -398 7 -4 10 65 10 199 0 113 -1 206
-3 206 -2 0 -7 -3 -10 -7z"/>
<path d="M5630 2100 c0 -5 5 -10 10 -10 6 0 10 5 10 10 0 6 -4 10 -10 10 -5 0
-10 -4 -10 -10z"/>
<path d="M3387 2066 c-40 -28 -45 -35 -33 -45 8 -7 20 -10 27 -6 8 6 7 10 -2
16 -11 7 -10 9 4 9 9 0 17 5 17 10 0 6 11 15 25 20 14 5 25 14 25 20 0 16 -11
11 -63 -24z"/>
<path d="M5343 2063 c-20 -3 -33 -10 -33 -19 0 -17 31 -19 48 -2 9 9 12 9 12
-1 0 -10 3 -11 14 -2 7 6 21 9 30 5 9 -3 16 -2 16 4 0 11 -25 23 -43 20 -7 0
-27 -3 -44 -5z"/>
<path d="M4940 2050 c-12 -8 -11 -10 8 -10 12 0 22 5 22 10 0 13 -11 13 -30 0z"/>
<path d="M5100 2046 c0 -13 13 -16 80 -16 47 0 80 4 80 10 0 6 -22 10 -49 10
-27 0 -63 3 -80 6 -24 5 -31 3 -31 -10z"/>
<path d="M5490 2044 c0 -8 -9 -14 -19 -14 -10 0 -21 -7 -25 -15 -3 -8 -12 -15
-21 -15 -8 0 -15 -6 -15 -14 0 -16 -51 -17 -62 -1 -13 18 -20 -3 -8 -24 14
-28 48 -24 91 12 18 15 39 27 46 27 7 0 13 5 13 10 0 6 9 10 20 10 11 0 20 6
20 14 0 7 -9 16 -20 19 -13 3 -20 0 -20 -9z"/>
<path d="M5555 2050 c-3 -5 3 -10 15 -10 12 0 18 5 15 10 -3 6 -10 10 -15 10
-5 0 -12 -4 -15 -10z"/>
<path d="M4711 2023 c0 -16 3 -22 6 -15 2 6 13 12 24 12 10 0 19 7 19 15 0 9
-9 15 -25 15 -21 0 -25 -5 -24 -27z"/>
<path d="M5629 2030 c-1 -8 -1 -21 1 -29 1 -10 -7 -12 -36 -6 -32 6 -36 4 -26
-8 10 -11 5 -16 -28 -27 -22 -7 -45 -19 -51 -27 -6 -7 -17 -13 -25 -13 -7 0
-17 -6 -21 -13 -4 -7 -21 -17 -37 -22 -16 -6 -31 -16 -34 -22 -6 -20 30 -15
58 7 14 11 30 20 37 20 6 0 13 3 15 8 2 4 19 15 38 25 66 33 135 72 160 91
l25 18 -29 -7 c-19 -4 -32 -2 -37 7 -7 10 -9 10 -10 -2z"/>
<path d="M3296 2005 c-11 -8 -16 -18 -12 -22 4 -4 11 -1 17 7 7 11 11 12 17 3
10 -15 37 0 28 16 -10 15 -27 13 -50 -4z"/>
<path d="M1212 1965 c0 -16 2 -22 5 -12 2 9 2 23 0 30 -3 6 -5 -1 -5 -18z"/>
<path d="M3215 1944 c-22 -18 -52 -39 -67 -45 -16 -6 -28 -15 -28 -20 0 -5 -6
-9 -13 -9 -7 0 -28 -13 -47 -30 -19 -16 -41 -29 -47 -30 -7 0 -26 -8 -43 -19
-23 -14 -27 -20 -16 -24 17 -7 76 20 76 34 0 5 6 9 14 9 22 0 76 34 76 48 0 6
9 12 19 12 10 0 22 7 25 16 4 10 13 14 28 10 13 -3 17 -3 11 0 -21 9 -15 27 7
21 11 -3 20 -1 20 5 0 5 10 18 22 27 12 10 17 20 12 23 -5 4 -27 -9 -49 -28z"/>
<path d="M1263 1939 c15 -85 21 -105 34 -112 10 -6 13 -19 9 -40 l-5 -32 11
34 c9 27 9 36 0 39 -7 2 -12 17 -12 32 0 16 -4 32 -10 35 -5 3 -10 19 -10 35
0 16 -5 32 -11 36 -8 5 -10 -3 -6 -27z"/>
<path d="M5096 1912 c-2 -4 -47 -7 -100 -7 -70 0 -96 -3 -96 -12 0 -8 13 -13
31 -13 17 0 39 -4 49 -10 13 -7 27 -5 50 7 30 15 33 15 42 -2 6 -9 19 -26 29
-36 23 -23 24 -28 2 -45 -10 -7 -14 -16 -10 -21 5 -4 14 0 21 10 7 9 19 17 25
17 11 0 23 8 58 40 11 10 12 15 4 18 -7 2 -20 -3 -30 -12 -22 -20 -51 -21 -51
-1 0 8 -7 15 -15 15 -8 0 -15 7 -15 15 0 8 6 15 14 15 7 0 19 -7 26 -15 7 -8
19 -15 26 -15 20 0 17 28 -3 34 -10 3 -3 4 15 2 21 -2 32 2 32 11 0 14 -95 19
-104 5z"/>
<path d="M4560 1900 c0 -5 7 -10 15 -10 8 0 15 5 15 10 0 6 -7 10 -15 10 -8 0
-15 -4 -15 -10z"/>
<path d="M4703 1903 c-18 -7 -16 -23 2 -23 8 0 15 7 15 15 0 8 -1 15 -2 14 -2
0 -9 -3 -15 -6z"/>
<path d="M5253 1893 c-7 -2 -13 -11 -13 -19 0 -8 -5 -14 -12 -14 -6 0 -9 -3
-5 -6 3 -3 25 6 49 20 37 22 40 26 18 25 -14 0 -31 -3 -37 -6z"/>
<path d="M4970 1850 c0 -5 5 -10 10 -10 6 0 10 5 10 10 0 6 -4 10 -10 10 -5 0
-10 -4 -10 -10z"/>
<path d="M5330 1834 c0 -13 -7 -15 -32 -11 -18 3 -27 3 -20 0 17 -7 15 -23 -3
-23 -8 0 -15 -4 -15 -10 0 -16 17 -12 64 19 43 27 50 41 19 41 -7 0 -13 -7
-13 -16z"/>
<path d="M5185 1772 c-27 -13 -51 -28 -53 -33 -2 -5 -10 -9 -18 -9 -8 0 -14
-6 -14 -12 -1 -23 -49 -50 -77 -43 -18 4 -24 2 -20 -7 2 -7 0 -21 -5 -32 -8
-14 4 -10 53 17 34 19 70 42 81 51 10 9 25 16 34 16 8 0 25 11 38 25 16 17 29
23 42 18 14 -5 16 -3 11 11 -4 10 -7 20 -7 22 0 7 -13 2 -65 -24z"/>
<path d="M4460 1780 c0 -5 5 -10 10 -10 6 0 10 5 10 10 0 6 -4 10 -10 10 -5 0
-10 -4 -10 -10z"/>
<path d="M4970 1770 c0 -15 7 -20 25 -20 14 0 25 4 25 8 0 5 -11 14 -25 20
-22 10 -25 9 -25 -8z"/>
<path d="M1330 1768 c0 -9 -3 -24 -6 -32 -5 -12 -2 -15 11 -10 14 6 16 3 10
-17 -5 -19 -4 -21 4 -9 10 13 12 13 20 0 6 -8 12 -12 14 -10 3 3 -8 25 -24 50
-16 25 -29 37 -29 28z"/>
<path d="M2878 1736 c-42 -23 -48 -36 -19 -36 26 0 101 41 95 52 -8 13 -36 7
-76 -16z"/>
<path d="M4955 1710 c-3 -5 1 -10 9 -10 9 0 16 5 16 10 0 6 -4 10 -9 10 -6 0
-13 -4 -16 -10z"/>
<path d="M1194 1675 c-3 -19 -3 -47 1 -62 8 -27 8 -27 16 12 11 56 11 85 -1
85 -5 0 -12 -16 -16 -35z"/>
<path d="M4720 1700 c0 -5 7 -10 15 -10 8 0 15 5 15 10 0 6 -7 10 -15 10 -8 0
-15 -4 -15 -10z"/>
<path d="M4900 1700 c0 -5 5 -10 10 -10 6 0 10 5 10 10 0 6 -4 10 -10 10 -5 0
-10 -4 -10 -10z"/>
<path d="M2797 1678 c-4 -12 -5 -24 -2 -26 7 -7 55 30 49 39 -10 17 -42 9 -47
-13z"/>
<path d="M4850 1679 c0 -14 5 -19 17 -17 26 5 29 38 4 38 -15 0 -21 -6 -21
-21z"/>
<path d="M1387 1660 c-6 -25 68 -112 92 -108 9 2 35 -12 56 -30 22 -17 48 -32
58 -32 10 0 15 -4 12 -10 -4 -6 5 -10 19 -10 15 0 49 -11 77 -24 28 -14 57
-22 65 -19 8 3 28 0 45 -7 24 -10 35 -10 53 0 20 10 28 9 49 -5 26 -17 67 -13
67 6 0 5 8 4 19 -2 14 -9 29 -9 64 -1 25 7 53 9 61 6 9 -3 27 1 41 10 13 9 40
16 60 16 19 0 35 5 35 10 0 6 14 10 30 10 17 0 38 4 48 9 9 5 53 21 96 35 85
28 93 32 83 42 -5 6 -71 -13 -132 -37 -11 -4 -31 -10 -45 -14 -14 -3 -41 -11
-60 -17 -83 -24 -156 -31 -335 -31 -178 -1 -221 3 -270 22 -48 19 -120 57
-123 64 -2 4 -9 7 -16 7 -6 0 -28 16 -48 35 -21 20 -42 33 -50 30 -8 -3 -21 1
-28 10 -10 12 -10 15 4 15 20 0 20 7 2 26 -19 18 -23 18 -29 -6z m81 -72 c15
-15 16 -28 2 -28 -5 0 -10 6 -10 14 0 8 -6 17 -12 19 -7 3 -8 6 -2 6 5 1 15
-4 22 -11z"/>
<path d="M2750 1670 c0 -5 -7 -10 -15 -10 -8 0 -29 -9 -47 -20 -18 -11 -43
-20 -55 -20 -13 0 -23 -4 -23 -10 0 -5 11 -10 25 -10 14 0 25 5 25 11 0 7 11
9 30 6 23 -5 33 -1 48 18 11 14 25 25 30 25 6 0 14 5 17 10 3 6 -3 10 -14 10
-12 0 -21 -4 -21 -10z"/>
<path d="M4670 1670 c0 -5 7 -10 15 -10 8 0 15 5 15 10 0 6 -7 10 -15 10 -8 0
-15 -4 -15 -10z"/>
<path d="M4800 1651 c0 -14 -81 -53 -96 -47 -8 3 -14 -1 -14 -8 0 -21 31 -28
50 -11 9 8 24 15 33 15 19 0 57 34 57 50 0 6 -7 10 -15 10 -8 0 -15 -4 -15 -9z"/>
<path d="M4968 1653 c7 -3 16 -2 19 1 4 3 -2 6 -13 5 -11 0 -14 -3 -6 -6z"/>
<path d="M4630 1625 c0 -8 5 -15 10 -15 6 0 10 7 10 15 0 8 -4 15 -10 15 -5 0
-10 -7 -10 -15z"/>
<path d="M4230 1621 c0 -12 78 -21 115 -13 30 6 30 6 5 13 -36 10 -120 10
-120 0z"/>
<path d="M4918 1614 c24 -11 12 -26 -15 -19 -23 5 -25 4 -14 -9 14 -17 41 -22
41 -7 0 5 10 11 22 14 27 7 23 12 -17 20 -16 4 -24 4 -17 1z"/>
<path d="M2580 1590 c-12 -8 -12 -10 3 -16 21 -8 35 2 21 16 -5 5 -15 6 -24 0z"/>
<path d="M1214 1576 c-3 -9 -3 -28 1 -43 5 -21 8 -24 16 -12 12 19 11 56 -1
64 -6 3 -13 -1 -16 -9z"/>
<path d="M2543 1573 c-18 -6 -16 -23 1 -23 17 0 30 16 19 23 -5 2 -14 2 -20 0z"/>
<path d="M4843 1567 c-11 -17 -68 -57 -83 -57 -6 0 -8 5 -5 10 3 6 1 10 -4 10
-6 0 -11 -4 -11 -10 0 -5 -7 -10 -15 -10 -12 0 -13 -4 -4 -19 12 -17 15 -17
68 11 31 16 64 37 74 47 16 16 17 19 3 24 -8 3 -19 1 -23 -6z"/>
<path d="M4658 1563 c-20 -5 -24 -28 -8 -38 13 -8 40 13 40 31 0 14 -3 15 -32
7z"/>
<path d="M4530 1536 c0 -8 -6 -16 -12 -19 -7 -2 -10 -7 -6 -11 7 -8 48 23 48
36 0 5 -7 8 -15 8 -8 0 -15 -6 -15 -14z"/>
<path d="M4583 1517 c-23 -12 -43 -28 -43 -34 0 -18 27 -16 34 2 3 8 14 15 25
15 10 0 21 9 24 20 3 11 4 20 4 19 -1 0 -21 -10 -44 -22z"/>
<path d="M4310 1510 c0 -5 12 -10 26 -10 14 0 23 4 19 10 -3 6 -15 10 -26 10
-10 0 -19 -4 -19 -10z"/>
<path d="M4420 1510 c0 -5 -8 -10 -19 -10 -10 0 -24 -7 -31 -15 -7 -8 -23 -15
-36 -15 -13 0 -24 -4 -24 -10 0 -16 57 -12 63 4 3 8 24 20 46 27 43 13 55 29
21 29 -11 0 -20 -4 -20 -10z"/>
<path d="M1238 1504 c-3 -3 -3 -14 -1 -25 5 -16 8 -18 14 -7 16 25 6 51 -13
32z"/>
<path d="M4120 1485 c0 -10 11 -15 35 -15 24 0 35 5 35 15 0 10 -11 15 -35 15
-24 0 -35 -5 -35 -15z"/>
<path d="M4477 1494 c-8 -9 36 -44 46 -37 5 3 -1 14 -12 24 -22 21 -25 22 -34
13z"/>
<path d="M3990 1470 c0 -5 16 -10 35 -10 19 0 35 5 35 10 0 6 -16 10 -35 10
-19 0 -35 -4 -35 -10z"/>
<path d="M4695 1469 c-4 -6 -13 -8 -21 -5 -8 3 -14 -1 -14 -10 0 -11 -8 -14
-32 -11 -18 2 -25 2 -15 0 34 -8 18 -25 -18 -19 -33 7 -51 -7 -22 -17 6 -2 0
-2 -15 0 -35 6 -37 -13 -2 -21 16 -4 34 0 52 12 15 10 44 26 64 37 21 11 40
25 42 32 6 16 -10 17 -19 2z"/>
<path d="M1267 1463 c-17 -16 7 -93 30 -93 6 0 9 -9 6 -22 -5 -22 -5 -22 13
-5 15 14 17 20 6 35 -7 9 -21 34 -31 54 -10 21 -21 35 -24 31z"/>
<path d="M4445 1460 c-10 -17 12 -37 25 -24 8 8 6 15 -4 23 -10 9 -16 9 -21 1z"/>
<path d="M4384 1421 c4 -6 13 -11 19 -10 7 1 20 -1 30 -6 10 -4 21 -5 24 -1
10 9 2 14 -41 21 -29 6 -37 5 -32 -4z"/>
<path d="M4355 1370 c-3 -5 -1 -10 4 -10 6 0 11 5 11 10 0 6 -2 10 -4 10 -3 0
-8 -4 -11 -10z"/>
<path d="M4505 1371 c3 -6 -11 -13 -30 -17 -20 -3 -34 -11 -32 -18 6 -20 36
-18 59 3 12 12 27 21 34 21 7 0 16 5 19 10 4 6 -7 10 -25 10 -17 0 -29 -4 -25
-9z"/>
<path d="M4275 1340 c-9 -10 -24 -16 -36 -13 -13 4 -19 0 -19 -11 0 -20 28
-20 54 -1 11 8 28 15 38 15 24 0 23 16 -1 23 -12 3 -27 -3 -36 -13z"/>
<path d="M3890 1340 c0 -5 9 -10 20 -10 11 0 20 5 20 10 0 6 -9 10 -20 10 -11
0 -20 -4 -20 -10z"/>
<path d="M4020 1335 c0 -8 9 -15 20 -15 11 0 20 7 20 15 0 8 -9 15 -20 15 -11
0 -20 -7 -20 -15z"/>
<path d="M4080 1342 c0 -4 21 -14 46 -21 34 -10 51 -11 70 -3 29 14 32 32 4
32 -11 0 -20 -4 -20 -10 0 -6 -9 -6 -26 0 -30 12 -74 13 -74 2z"/>
<path d="M1326 1332 c-8 -13 11 -35 23 -28 16 10 14 36 -3 36 -8 0 -17 -4 -20
-8z"/>
<path d="M4400 1319 c0 -15 -42 -48 -61 -49 -9 0 -22 -7 -29 -15 -7 -8 -23
-15 -35 -15 -13 0 -25 -7 -29 -15 -3 -8 -12 -15 -21 -15 -8 0 -15 -5 -15 -11
0 -7 -11 -8 -30 -4 -19 4 -30 3 -30 -4 0 -6 8 -11 17 -11 13 0 14 -3 5 -12 -8
-8 -15 -8 -25 1 -12 9 -18 7 -30 -12 -20 -32 -94 -69 -118 -62 -13 4 -19 2
-19 -8 0 -9 -13 -21 -30 -29 -16 -7 -30 -19 -30 -25 0 -7 -6 -13 -12 -14 -7
-1 -22 -2 -32 -3 -24 -1 -33 -24 -13 -32 17 -6 103 41 100 55 -2 6 3 8 10 5
13 -5 168 83 175 99 2 4 10 7 18 7 14 0 54 19 64 31 3 3 20 12 38 20 17 8 32
20 32 26 0 7 5 13 12 13 11 0 56 21 115 54 l23 13 -25 11 c-17 8 -25 8 -25 1z"/>
<path d="M1359 1273 c23 -43 135 -128 157 -119 14 5 14 8 0 21 -8 8 -23 15
-33 15 -25 0 -43 19 -35 38 4 11 1 14 -11 9 -10 -4 -28 5 -48 24 -36 33 -44
36 -30 12z"/>
<path d="M4190 1281 c0 -5 -12 -11 -27 -13 -31 -4 -42 -25 -18 -34 11 -5 26 4
45 25 19 20 24 31 14 31 -8 0 -14 -4 -14 -9z"/>
<path d="M4090 1215 c-7 -9 -9 -19 -5 -23 4 -4 10 -1 12 6 3 6 11 12 19 12 8
0 14 5 14 10 0 15 -26 12 -40 -5z"/>
<path d="M3720 1210 c0 -13 30 -13 50 0 11 7 7 10 -17 10 -18 0 -33 -4 -33
-10z"/>
<path d="M3833 1214 c20 -6 23 -30 5 -37 -8 -2 -9 -8 -4 -13 5 -5 11 -4 13 4
3 6 11 12 20 12 29 0 9 35 -22 37 -17 1 -22 -1 -12 -3z"/>
<path d="M3930 1195 c0 -8 7 -15 15 -15 8 0 15 -4 15 -10 0 -5 11 -10 24 -10
14 0 28 5 31 10 3 6 -3 10 -15 10 -11 0 -23 7 -26 15 -4 8 -15 15 -25 15 -10
0 -19 -7 -19 -15z"/>
<path d="M4030 1191 c0 -6 5 -13 10 -16 6 -3 10 1 10 9 0 9 -4 16 -10 16 -5 0
-10 -4 -10 -9z"/>
<path d="M3863 1134 c2 -23 -4 -29 -40 -42 -44 -17 -58 -42 -23 -42 11 0 19 6
18 12 -2 8 7 12 24 10 17 -2 36 4 49 17 12 11 35 23 50 26 16 4 29 13 29 21 0
18 -15 18 -34 -2 -18 -18 -56 -10 -56 12 0 8 -4 14 -9 14 -6 0 -9 -12 -8 -26z"/>
<path d="M1535 1140 c-4 -6 5 -10 19 -10 14 0 26 -4 26 -10 0 -5 9 -10 19 -10
11 0 23 -4 26 -10 3 -5 19 -10 34 -10 16 0 42 -7 57 -15 23 -12 67 -15 199
-14 94 0 179 4 190 9 25 11 32 10 -175 15 -125 2 -192 8 -235 20 -33 10 -72
20 -87 22 -16 3 -28 9 -28 14 0 12 -37 11 -45 -1z"/>
<path d="M2204 1114 c5 -13 1 -15 -18 -10 -30 7 -79 -9 -56 -18 8 -3 33 -5 55
-4 35 3 40 0 43 -19 2 -13 8 -23 13 -23 5 0 9 -9 9 -20 0 -11 4 -28 9 -38 5
-9 17 -35 27 -57 l18 -40 8 34 c10 36 3 54 -12 31 -7 -11 -10 -8 -10 13 0 15
-5 27 -11 27 -5 0 -9 8 -7 18 1 9 -6 29 -15 43 -10 15 -15 34 -11 44 7 18 -10
35 -35 35 -8 0 -11 -6 -7 -16z"/>
<path d="M3635 1050 c-3 -5 1 -10 10 -10 21 0 45 -24 45 -44 0 -9 -8 -16 -20
-16 -11 0 -20 -7 -20 -15 0 -8 4 -15 9 -15 5 0 14 7 21 15 7 8 19 15 26 15 22
0 17 17 -16 50 -31 31 -45 37 -55 20z"/>
<path d="M3730 1030 c0 -5 5 -10 10 -10 6 0 10 5 10 10 0 6 -4 10 -10 10 -5 0
-10 -4 -10 -10z"/>
<path d="M3595 1000 c3 -5 8 -10 11 -10 2 0 4 5 4 10 0 6 -5 10 -11 10 -5 0
-7 -4 -4 -10z"/>
<path d="M3780 980 c0 -5 7 -10 15 -10 8 0 15 5 15 10 0 6 -7 10 -15 10 -8 0
-15 -4 -15 -10z"/>
<path d="M3820 960 c0 -5 -9 -10 -19 -10 -11 0 -23 -5 -27 -11 -3 -6 -14 -9
-24 -6 -12 3 -17 0 -14 -8 3 -8 -7 -15 -28 -19 -31 -6 -109 -52 -116 -68 -2
-5 -8 -8 -13 -8 -6 0 -19 -9 -31 -20 -12 -11 -17 -20 -12 -20 16 0 64 24 64
33 0 4 5 7 11 7 6 0 23 8 37 19 15 10 68 40 117 66 106 56 104 55 77 55 -12 0
-22 -4 -22 -10z"/>
<path d="M3523 944 c-11 -28 43 -45 77 -24 13 8 13 10 0 14 -8 3 -28 10 -43
16 -22 8 -29 7 -34 -6z"/>
<path d="M2326 874 c-8 -21 -8 -26 3 -20 5 3 11 -4 15 -17 7 -29 118 -145 176
-183 162 -107 356 -146 541 -108 49 10 89 21 89 26 0 4 11 8 25 8 14 0 25 3
25 8 0 8 49 32 67 32 7 0 13 5 13 10 0 6 -11 10 -25 10 -14 0 -25 -4 -25 -10
0 -5 -8 -10 -17 -10 -10 0 -31 -7 -46 -15 -15 -8 -60 -23 -100 -34 -59 -17
-90 -19 -177 -15 -57 3 -112 10 -122 15 -9 5 -26 9 -37 9 -12 0 -21 5 -21 11
0 7 -10 9 -26 5 -19 -5 -35 0 -59 19 -19 14 -38 25 -44 25 -6 0 -11 5 -11 10
0 6 -9 10 -20 10 -22 0 -180 150 -180 171 0 6 -9 22 -19 35 -16 20 -20 21 -25
8z"/>
<path d="M3335 860 c-8 -12 20 -24 35 -15 6 3 8 11 5 16 -8 12 -32 12 -40 -1z"/>
<path d="M3430 862 c0 -5 11 -14 24 -20 20 -9 25 -8 30 4 9 23 8 24 -24 24
-16 0 -30 -4 -30 -8z"/>
<path d="M3389 831 c-13 -11 -19 -20 -13 -21 15 0 50 27 43 34 -3 4 -17 -2
-30 -13z"/>
<path d="M3290 829 c0 -18 44 -59 64 -59 15 0 16 3 6 15 -7 8 -19 15 -26 15
-8 0 -14 9 -14 20 0 11 -7 20 -15 20 -8 0 -15 -5 -15 -11z"/>
<path d="M3210 810 c0 -5 7 -10 15 -10 8 0 15 5 15 10 0 6 -7 10 -15 10 -8 0
-15 -4 -15 -10z"/>
<path d="M3469 787 c-61 -47 -79 -64 -79 -74 0 -17 15 -16 34 2 8 8 20 15 26
15 6 0 8 5 5 10 -3 6 2 10 12 10 10 0 27 7 38 16 17 13 18 16 5 24 -19 12 -22
12 -41 -3z"/>
<path d="M3297 764 c-4 -4 -7 -14 -7 -23 0 -11 3 -12 11 -4 6 6 10 16 7 23 -2
6 -7 8 -11 4z"/>
<path d="M3220 720 c0 -5 7 -10 16 -10 8 0 12 5 9 10 -3 6 -10 10 -16 10 -5 0
-9 -4 -9 -10z"/>
<path d="M3150 691 c0 -12 -14 -22 -47 -33 l-48 -16 42 -1 c26 -1 45 4 50 13
4 8 16 15 26 17 24 5 23 21 -2 31 -16 6 -21 3 -21 -11z"/>
<path d="M3325 687 c-13 -18 -25 -22 -48 -20 -30 4 -31 3 -13 -11 26 -21 30
-20 77 11 29 19 36 29 27 34 -19 13 -24 11 -43 -14z"/>
<path d="M2948 663 c7 -3 16 -2 19 1 4 3 -2 6 -13 5 -11 0 -14 -3 -6 -6z"/>
<path d="M2990 632 c0 -5 11 -12 25 -15 16 -3 24 0 22 7 -4 14 -47 21 -47 8z"/>
<path d="M2808 623 c7 -3 16 -2 19 1 4 3 -2 6 -13 5 -11 0 -14 -3 -6 -6z"/>
<path d="M2926 601 c-4 -7 -5 -15 -2 -18 9 -9 19 4 14 18 -4 11 -6 11 -12 0z"/>
</g>
</svg>
